<?xml version="1.0" encoding="UTF-8"?>
<svg version="1.1" xmlns="http://www.w3.org/2000/svg" width="261" height="156">
<path d="M0 0 C86.13 0 172.26 0 261 0 C261 51.48 261 102.96 261 156 C174.87 156 88.74 156 0 156 C0 104.52 0 53.04 0 0 Z " fill="#F8F8F9" transform="translate(0,0)"/>
<path d="M0 0 C6.41721127 0.62938034 10.1822919 7.41875028 14 12 C15.6454378 13.68762851 17.31288577 15.3540349 19 17 C20.1054757 18.10285608 21.20962854 19.20703964 22.3125 20.3125 C23.199375 21.199375 24.08625 22.08625 25 23 C24.34 24.32 23.68 25.64 23 27 C22.34 27 21.68 27 21 27 C20.608125 25.9275 20.21625 24.855 19.8125 23.75 C18.21451889 20.0263324 16.26219566 18.44664675 13 16 C11.15849456 14.0124721 9.40114782 11.9683213 7.6484375 9.90234375 C5.43672063 7.33962294 5.43672063 7.33962294 3 5 C0.86196946 5.07606836 0.86196946 5.07606836 -1 6 C-1.33 6.66 -1.66 7.32 -2 8 C-2.66 8 -3.32 8 -4 8 C-4.226875 8.556875 -4.45375 9.11375 -4.6875 9.6875 C-6.38572802 12.67961603 -8.50764196 14.61600535 -11 17 C-12.292586 18.31159462 -13.58418081 19.62416652 -14.875 20.9375 C-17.39100626 23.46298274 -19.9449147 25.84847494 -22.6875 28.125 C-24.98396888 30.03872407 -26.92727884 31.99180378 -28.8125 34.3125 C-31 37 -31 37 -33 38 C-33 39.32 -33 40.64 -33 42 C-31.515 42.495 -31.515 42.495 -30 43 C-29.773125 42.443125 -29.54625 41.88625 -29.3125 41.3125 C-27.62449964 38.33840412 -25.53323483 36.27991135 -23 34 C-22.34 34 -21.68 34 -21 34 C-20.79375 33.443125 -20.5875 32.88625 -20.375 32.3125 C-18.85334922 29.75336005 -17.02412811 28.31099151 -14.70703125 26.484375 C-12.76515932 24.79579072 -11.16359005 22.9623723 -9.5 21 C-6.54088948 17.55750277 -3.7493588 14.58289162 0 12 C3.30694968 12.32742076 4.97824927 13.5911716 7.25 15.9375 C7.77078125 16.46214844 8.2915625 16.98679687 8.828125 17.52734375 C10 19 10 19 10 21 C10.56589844 21.2371875 11.13179688 21.474375 11.71484375 21.71875 C14.50114746 23.28098524 16.35332514 25.19737443 18.5625 27.5 C20.9961985 30.02809153 23.07009401 32.04672934 26 34 C26 37 26 37 24.77734375 38.296875 C24.17019531 38.77640625 23.56304687 39.2559375 22.9375 39.75 C19.86191946 42.28997675 17.03133382 44.95601682 14.26953125 47.828125 C13.60896729 48.51165039 12.94840332 49.19517578 12.26782227 49.89941406 C10.92908459 51.29306185 9.59998479 52.69603612 8.28100586 54.10839844 C7.65718018 54.75325195 7.03335449 55.39810547 6.390625 56.0625 C5.83407227 56.65160156 5.27751953 57.24070313 4.70410156 57.84765625 C3 59 3 59 0.9765625 58.84716797 C-2.39203217 57.40336566 -4.72520484 54.70415678 -7.25 52.125 C-8.08144531 51.31095703 -8.08144531 51.31095703 -8.9296875 50.48046875 C-13 46.38008005 -13 46.38008005 -13 43 C-9.3501677 44.52145629 -7.14171371 46.71186524 -4.4375 49.5625 C-1.21673663 53.04237626 -1.21673663 53.04237626 3 55 C3.20625 54.443125 3.4125 53.88625 3.625 53.3125 C5.17031131 50.71356735 7.06597649 49.154633 9.41796875 47.2890625 C11.78415117 45.36106201 13.87184554 43.18415853 16 41 C16.78375 40.319375 17.5675 39.63875 18.375 38.9375 C20.21486859 37.19202951 20.21486859 37.19202951 19.90234375 35.2109375 C18.6091319 32.04228855 16.58447555 30.1125514 14.1875 27.6875 C13.31480469 26.78386719 12.44210938 25.88023438 11.54296875 24.94921875 C9.24808063 22.76933961 9.24808063 22.76933961 6.83984375 23.046875 C4.05350369 24.4903293 2.17470575 26.76806515 0 29 C-0.66 29 -1.32 29 -2 29 C-2.433125 29.8971875 -2.433125 29.8971875 -2.875 30.8125 C-4 33 -4 33 -6 36 C-6 36.66 -6 37.32 -6 38 C-5.01 38.33 -4.02 38.66 -3 39 C-2 40.33333333 -1 41.66666667 0 43 C0.99 43.33 1.98 43.66 3 44 C3.24878906 43.42765625 3.49757812 42.8553125 3.75390625 42.265625 C5.18425373 39.66499322 6.84664674 37.85253401 8.9375 35.75 C9.62714844 35.04359375 10.31679687 34.3371875 11.02734375 33.609375 C13 32 13 32 16 32 C16 35 16 35 14.42578125 36.6484375 C13.72839844 37.21820313 13.03101563 37.78796875 12.3125 38.375 C9.77858838 40.47172265 7.47191527 42.52220941 5.3125 45 C3 47 3 47 0.5625 47.25 C-2.7476471 45.6352941 -4.39367923 43.41984168 -6.5703125 40.49609375 C-7.04210937 40.00238281 -7.51390625 39.50867187 -8 39 C-10.96550427 38.65599021 -10.96550427 38.65599021 -12.4296875 40.35546875 C-12.90664062 40.96003906 -13.38359375 41.56460938 -13.875 42.1875 C-20.73367797 50.57789266 -20.73367797 50.57789266 -25 52 C-25.70151152 53.3153341 -26.36525925 54.65117592 -27 56 C-28.375 57.8125 -28.375 57.8125 -30 59 C-34.16198896 58.70077204 -36.1608426 56.14217319 -38.9375 53.25 C-39.77152344 52.38890625 -40.60554688 51.5278125 -41.46484375 50.640625 C-42.30144531 49.76921875 -43.13804688 48.8978125 -44 48 C-47.38810033 44.54003088 -50.84849984 41.42442443 -54.64453125 38.4296875 C-56 37 -56 37 -56 34 C-55.34 34 -54.68 34 -54 34 C-54 33.34 -54 32.68 -54 32 C-53.01 32 -52.02 32 -51 32 C-50.938125 32.70125 -50.87625 33.4025 -50.8125 34.125 C-48.4136109 42.61337681 -38.64243638 48.81059658 -32 54 C-28.22182859 51.64913779 -25.57745099 49.60843139 -23 46 C-22.34 46 -21.68 46 -21 46 C-20.773125 45.443125 -20.54625 44.88625 -20.3125 44.3125 C-18.62449964 41.33840412 -16.53323483 39.27991135 -14 37 C-13.34 37 -12.68 37 -12 37 C-11.7525 36.4225 -11.505 35.845 -11.25 35.25 C-9.81700012 32.67060021 -8.21575324 30.93878408 -6 29 C-5.34 29 -4.68 29 -4 29 C-3.505 27.515 -3.505 27.515 -3 26 C-2.175 25.195625 -1.35 24.39125 -0.5 23.5625 C1.84093148 21.16304524 2.64126013 20.22865886 3 17 C-0.2648744 17.58200874 -1.88873979 18.5186814 -4.20800781 20.86743164 C-5.10848846 21.76825218 -5.10848846 21.76825218 -6.02716064 22.68727112 C-6.66272888 23.33832321 -7.29829712 23.98937531 -7.953125 24.66015625 C-8.61334656 25.32462265 -9.27356812 25.98908905 -9.95379639 26.6736908 C-12.0596764 28.79635563 -14.15488328 30.92921605 -16.25 33.0625 C-17.67639232 34.50393934 -19.1034677 35.94470309 -20.53125 37.38476562 C-24.02880594 40.91538832 -27.51682565 44.45519053 -31 48 C-34.86914062 46.24316406 -34.86914062 46.24316406 -36.046875 44.0546875 C-36.27890625 43.33539063 -36.5109375 42.61609375 -36.75 41.875 C-36.99234375 41.15054688 -37.2346875 40.42609375 -37.484375 39.6796875 C-37.65453125 39.12539063 -37.8246875 38.57109375 -38 38 C-37.34 38 -36.68 38 -36 38 C-35.7525 37.443125 -35.505 36.88625 -35.25 36.3125 C-33.15940215 32.44489398 -30.77162368 29.57871776 -27.25 26.9375 C-26.5075 26.298125 -25.765 25.65875 -25 25 C-25 23.68 -25 22.36 -25 21 C-25.639375 20.731875 -26.27875 20.46375 -26.9375 20.1875 C-29 19 -29 19 -30 16 C-31.98 16.99 -33.96 17.98 -36 19 C-35.8125 16.625 -35.8125 16.625 -35 14 C-33.35 13.34 -31.7 12.68 -30 12 C-27.36 14.64 -24.72 17.28 -22 20 C-18.59618309 18.29809155 -17.0738524 17.30325042 -14.5625 14.6875 C-13.95664063 14.06359375 -13.35078125 13.4396875 -12.7265625 12.796875 C-12.15679687 12.20390625 -11.58703125 11.6109375 -11 11 C-9.33333333 9.33333333 -7.66666667 7.66666667 -6 6 C-5.505 5.44699219 -5.01 4.89398438 -4.5 4.32421875 C-2.9375 2.625 -2.9375 2.625 0 0 Z " fill="#363F64" transform="translate(144,0)"/>
<path d="M0 0 C-0.95081209 1.11804792 -1.90287871 2.23502903 -2.85546875 3.3515625 C-3.65053833 4.28476318 -3.65053833 4.28476318 -4.46166992 5.23681641 C-6.53268524 7.61054639 -8.74641553 9.79882447 -11 12 C-12.60552211 13.60281008 -14.2095861 15.20708155 -15.8125 16.8125 C-17.20833333 18.20833333 -18.60416667 19.60416667 -20 21 C-23.74636902 19.34481541 -25.80194852 17.20263039 -28.4375 14.14453125 C-29.97801285 12.73487697 -29.97801285 12.73487697 -32.1875 13.32421875 C-32.785625 13.54722656 -33.38375 13.77023437 -34 14 C-34 14.99 -34 15.98 -34 17 C-32.68 16.67 -31.36 16.34 -30 16 C-28.02 18.31 -26.04 20.62 -24 23 C-26 27 -26 27 -28.25 28.75 C-31.8474764 31.69338978 -34.7378218 34.92000003 -37 39 C-37.06043651 41.90504697 -37.06043651 41.90504697 -36 44 C-40.88627768 40.02279724 -45.47199481 35.75148106 -50 31.375 C-50.60030029 30.81272705 -51.20060059 30.2504541 -51.8190918 29.67114258 C-53.5 28.0234375 -53.5 28.0234375 -56 25 C-55.48295284 17.24933209 -46.31275589 9.42977271 -40.8984375 4.53515625 C-29.89724059 -4.65671237 -13.24746924 -1.58357085 0 0 Z " fill="#B13134" transform="translate(144,0)"/>
<path d="M0 0 C6.41721127 0.62938034 10.1822919 7.41875028 14 12 C15.6454378 13.68762851 17.31288577 15.3540349 19 17 C20.1054757 18.10285608 21.20962854 19.20703964 22.3125 20.3125 C23.199375 21.199375 24.08625 22.08625 25 23 C24.34 24.32 23.68 25.64 23 27 C22.34 27 21.68 27 21 27 C20.608125 25.9275 20.21625 24.855 19.8125 23.75 C18.21451889 20.0263324 16.26219566 18.44664675 13 16 C11.15849456 14.0124721 9.40114782 11.9683213 7.6484375 9.90234375 C5.43672063 7.33962294 5.43672063 7.33962294 3 5 C0.86196946 5.07606836 0.86196946 5.07606836 -1 6 C-1.33 6.66 -1.66 7.32 -2 8 C-2.66 8 -3.32 8 -4 8 C-4.226875 8.556875 -4.45375 9.11375 -4.6875 9.6875 C-6.38572802 12.67961603 -8.50764196 14.61600535 -11 17 C-12.292586 18.31159462 -13.58418081 19.62416652 -14.875 20.9375 C-17.39100626 23.46298274 -19.9449147 25.84847494 -22.6875 28.125 C-24.98396888 30.03872407 -26.92727884 31.99180378 -28.8125 34.3125 C-31 37 -31 37 -33 38 C-33 39.32 -33 40.64 -33 42 C-32.01 42.33 -31.02 42.66 -30 43 C-29.773125 42.443125 -29.54625 41.88625 -29.3125 41.3125 C-27.62449964 38.33840412 -25.53323483 36.27991135 -23 34 C-22.34 34 -21.68 34 -21 34 C-20.79375 33.443125 -20.5875 32.88625 -20.375 32.3125 C-18.85334922 29.75336005 -17.02412811 28.31099151 -14.70703125 26.484375 C-12.76515932 24.79579072 -11.16359005 22.9623723 -9.5 21 C-6.5566208 17.56171633 -3.66547329 14.66579875 0 12 C0.99 12 1.98 12 3 12 C1.65427113 14.99943905 0.16462899 17.08076179 -2.16455078 19.39160156 C-2.80506378 20.0319635 -3.44557678 20.67232544 -4.10549927 21.33209229 C-4.79513763 22.01140808 -5.484776 22.69072388 -6.1953125 23.390625 C-6.90275604 24.09523865 -7.61019958 24.79985229 -8.33908081 25.52581787 C-10.59639862 27.7719539 -12.86057633 30.01103009 -15.125 32.25 C-16.65800953 33.77297717 -18.19056715 35.29640939 -19.72265625 36.8203125 C-23.47654573 40.55216815 -27.23608914 44.27825351 -31 48 C-34.86914062 46.24316406 -34.86914062 46.24316406 -36.046875 44.0546875 C-36.27890625 43.33539063 -36.5109375 42.61609375 -36.75 41.875 C-36.99234375 41.15054688 -37.2346875 40.42609375 -37.484375 39.6796875 C-37.65453125 39.12539063 -37.8246875 38.57109375 -38 38 C-37.34 38 -36.68 38 -36 38 C-35.7525 37.443125 -35.505 36.88625 -35.25 36.3125 C-33.15940215 32.44489398 -30.77162368 29.57871776 -27.25 26.9375 C-26.5075 26.298125 -25.765 25.65875 -25 25 C-25 23.68 -25 22.36 -25 21 C-25.639375 20.731875 -26.27875 20.46375 -26.9375 20.1875 C-29 19 -29 19 -30 16 C-31.98 16.99 -33.96 17.98 -36 19 C-35.8125 16.625 -35.8125 16.625 -35 14 C-33.35 13.34 -31.7 12.68 -30 12 C-27.36 14.64 -24.72 17.28 -22 20 C-18.59618309 18.29809155 -17.0738524 17.30325042 -14.5625 14.6875 C-13.95664063 14.06359375 -13.35078125 13.4396875 -12.7265625 12.796875 C-12.15679687 12.20390625 -11.58703125 11.6109375 -11 11 C-9.33333333 9.33333333 -7.66666667 7.66666667 -6 6 C-5.505 5.44699219 -5.01 4.89398438 -4.5 4.32421875 C-2.9375 2.625 -2.9375 2.625 0 0 Z " fill="#B52425" transform="translate(144,0)"/>
<path d="M0 0 C4.22712806 1.82535075 5.97459427 3.92066169 8 8 C8.43359375 11.15625 8.43359375 11.15625 8.4375 14.5 C8.46650391 16.15515625 8.46650391 16.15515625 8.49609375 17.84375 C7.89984938 21.63717876 6.65064916 23.27531036 4 26 C0.28075827 27.85962086 -3.95020231 27.57398707 -8 27 C-11.90932739 24.06800446 -14.46031418 20.76070054 -15.40625 15.921875 C-15.6582976 10.08277235 -14.19650508 7.02183227 -10.5078125 2.53125 C-7.34492092 -0.6808057 -4.34060686 -0.29427843 0 0 Z " fill="#C03131" transform="translate(170,83)"/>
<path d="M0 0 C9.57 0 19.14 0 29 0 C25.34042184 4.26950785 21.96690768 8.12534598 18 12 C16.39447789 13.60281008 14.7904139 15.20708155 13.1875 16.8125 C11.79166667 18.20833333 10.39583333 19.60416667 9 21 C4.70621187 19.07712966 2.22846299 16.37521131 -1 13 C-8.92421831 15.02712561 -12.95800389 20.98772285 -18 27 C-19.32 26.34 -20.64 25.68 -22 25 C-21.42663358 21.27155172 -19.91909406 19.53359417 -17.2890625 16.890625 C-16.53882812 16.13652344 -15.78859375 15.38242188 -15.015625 14.60546875 C-14.22671875 13.82816406 -13.4378125 13.05085937 -12.625 12.25 C-11.84382813 11.45722656 -11.06265625 10.66445312 -10.2578125 9.84765625 C-9.505 9.09871094 -8.7521875 8.34976562 -7.9765625 7.578125 C-6.94136475 6.54800293 -6.94136475 6.54800293 -5.88525391 5.49707031 C-4 4 -4 4 -1 4 C0.71875 5.64453125 0.71875 5.64453125 2.5 7.8125 C6.48706313 12.94740781 6.48706313 12.94740781 12 16 C9.88614045 12.13485228 7.50255276 9.33817001 4.3125 6.3125 C2.83786231 4.91312293 1.39011495 3.48337214 0 2 C0 1.34 0 0.68 0 0 Z " fill="#FBF6F6" transform="translate(115,0)"/>
<path d="M0 0 C2.85708241 1.49942302 4.68920863 3.03550982 6 6 C6 8.64 6 11.28 6 14 C-0.27 14 -6.54 14 -13 14 C-13 15.32 -13 16.64 -13 18 C-12.34 18 -11.68 18 -11 18 C-10.34 18.99 -9.68 19.98 -9 21 C-7.09542071 21.43827201 -7.09542071 21.43827201 -5 21.3125 C-3.948125 21.30669922 -3.948125 21.30669922 -2.875 21.30078125 C-0.7583423 21.14912946 -0.7583423 21.14912946 1 19 C2.32 19 3.64 19 5 19 C4.63935774 21.61465639 4.24128496 22.77199678 2.296875 24.609375 C-1.8193646 27.10152006 -6.34789903 26.65044573 -11 26 C-14.16620095 23.81381363 -14.7896387 22.63108389 -16 19 C-17.03775652 6.93237421 -17.03775652 6.93237421 -14.1875 1.625 C-9.42325175 -0.80383244 -5.22802828 -1.06242095 0 0 Z " fill="#2F3E5F" transform="translate(126,84)"/>
<path d="M0 0 C0.33 0 0.66 0 1 0 C1.05791844 3.12492251 1.09356746 6.24970766 1.125 9.375 C1.14175781 10.26445313 1.15851563 11.15390625 1.17578125 12.0703125 C1.18222656 12.92109375 1.18867188 13.771875 1.1953125 14.6484375 C1.20578613 15.43395996 1.21625977 16.21948242 1.22705078 17.02880859 C1 19 1 19 -1 21 C-1 20.01 -1 19.02 -1 18 C-4.06440727 18.52221051 -4.06440727 18.52221051 -6.3125 20.5625 C-8 22 -8 22 -11.4375 22.5625 C-15 22 -15 22 -17.5 19.5625 C-19.4111763 15.02345629 -19.42703141 11.69539368 -18 7 C-15.73195733 4.22794785 -14.48969079 4.04996845 -10.9375 3.6875 C-8 4 -8 4 -5 6 C-5 6.66 -5 7.32 -5 8 C-3.68 8 -2.36 8 -1 8 C-1 7.01 -1 6.02 -1 5 C-1.66 5 -2.32 5 -3 5 C-2.67 4.34 -2.34 3.68 -2 3 C-1.34 3.33 -0.68 3.66 0 4 C0 2.68 0 1.36 0 0 Z " fill="#FAF1F1" transform="translate(203,84)"/>
<path d="M0 0 C1.65 0 3.3 0 5 0 C5.02505615 0.60062256 5.0501123 1.20124512 5.07592773 1.82006836 C5.1915528 4.52611437 5.31442936 7.23178283 5.4375 9.9375 C5.47681641 10.88302734 5.51613281 11.82855469 5.55664062 12.80273438 C5.59853516 13.70185547 5.64042969 14.60097656 5.68359375 15.52734375 C5.72025146 16.35999756 5.75690918 17.19265137 5.79467773 18.05053711 C5.79367103 20.00338858 5.79367103 20.00338858 7 21 C9.95817107 21.25005386 9.95817107 21.25005386 13 21 C15.3968665 18.6031335 15.28281133 17.92971686 15.4140625 14.6484375 C15.45273438 13.79765625 15.49140625 12.946875 15.53125 12.0703125 C15.5621875 11.18085937 15.593125 10.29140625 15.625 9.375 C15.68300781 8.02921875 15.68300781 8.02921875 15.7421875 6.65625 C15.83659357 4.4377073 15.92216748 2.21917597 16 0 C17.65 0 19.3 0 21 0 C21 8.58 21 17.16 21 26 C19.35 26 17.7 26 16 26 C16 25.34 16 24.68 16 24 C15.01 24.66 14.02 25.32 13 26 C7.93627042 26.73505752 7.93627042 26.73505752 5 26 C0.57637405 21.29240377 -0.56305664 18.03352148 -0.43945312 11.63085938 C-0.39755859 10.78330078 -0.35566406 9.93574219 -0.3125 9.0625 C-0.28994141 8.18787109 -0.26738281 7.31324219 -0.24414062 6.41210938 C-0.18572203 4.27398879 -0.09605816 2.13676044 0 0 Z " fill="#C44343" transform="translate(204,84)"/>
<path d="M0 0 C1.32 0 2.64 0 4 0 C4.33 0.66 4.66 1.32 5 2 C5.66 1.34 6.32 0.68 7 0 C9.2421875 -0.37109375 9.2421875 -0.37109375 11.875 -0.4375 C12.73867187 -0.47746094 13.60234375 -0.51742187 14.4921875 -0.55859375 C17 0 17 0 19.3046875 1.8515625 C21.79816421 6.48230497 21.43044826 10.64543345 21.25 15.8125 C21.23195313 16.79154297 21.21390625 17.77058594 21.1953125 18.77929688 C21.14832887 21.18720771 21.08265694 23.59309335 21 26 C19.35 26 17.7 26 16 26 C15.67 19.07 15.34 12.14 15 5 C8.59628479 3.5527864 8.59628479 3.5527864 5 5 C4.67 11.93 4.34 18.86 4 26 C2.68 26 1.36 26 0 26 C0 17.42 0 8.84 0 0 Z " fill="#485470" transform="translate(65,84)"/>
<path d="M0 0 C2.33333333 0 4.66666667 0 7 0 C8.12728516 -0.05220703 8.12728516 -0.05220703 9.27734375 -0.10546875 C10.15519531 -0.13253906 11.03304688 -0.15960938 11.9375 -0.1875 C12.81277344 -0.22230469 13.68804687 -0.25710937 14.58984375 -0.29296875 C17 0 17 0 18.63232422 1.18554688 C20.49417741 3.65560987 20.34386118 5.2537091 20.29296875 8.32421875 C20.28330078 9.35224609 20.27363281 10.38027344 20.26367188 11.43945312 C20.23853516 12.51130859 20.21339844 13.58316406 20.1875 14.6875 C20.16719727 16.31268555 20.16719727 16.31268555 20.14648438 17.97070312 C20.11110643 20.64763405 20.06174189 23.32356838 20 26 C18.68 26 17.36 26 16 26 C15.97494385 25.39937744 15.9498877 24.79875488 15.92407227 24.17993164 C15.8084472 21.47388563 15.68557064 18.76821717 15.5625 16.0625 C15.52318359 15.11697266 15.48386719 14.17144531 15.44335938 13.19726562 C15.40146484 12.29814453 15.35957031 11.39902344 15.31640625 10.47265625 C15.27974854 9.64000244 15.24309082 8.80734863 15.20532227 7.94946289 C15.20632897 5.99661142 15.20632897 5.99661142 14 5 C12.12052247 5.02516442 12.12052247 5.02516442 10 5.3125 C9.278125 5.39113281 8.55625 5.46976562 7.8125 5.55078125 C7.214375 5.69902344 6.61625 5.84726563 6 6 C4.88176185 8.23647631 4.80603939 9.64891529 4.68359375 12.1328125 C4.64169922 12.93847656 4.59980469 13.74414062 4.55664062 14.57421875 C4.49766602 15.83685547 4.49766602 15.83685547 4.4375 17.125 C4.37272461 18.39923828 4.37272461 18.39923828 4.30664062 19.69921875 C4.20045764 21.79928223 4.09971503 23.89961948 4 26 C2.68 26 1.36 26 0 26 C0 17.42 0 8.84 0 0 Z " fill="#535F79" transform="translate(19,84)"/>
<path d="M0 0 C1.5778125 0.00580078 1.5778125 0.00580078 3.1875 0.01171875 C6 0.3125 6 0.3125 9 2.3125 C8.67 3.9625 8.34 5.6125 8 7.3125 C4.125 6.4375 4.125 6.4375 3 5.3125 C0.32941149 5.17134839 -2.32432238 5.27002893 -5 5.3125 C-4.92163353 7.26970405 -4.92163353 7.26970405 -4 9.3125 C-1.52768672 10.60525788 -1.52768672 10.60525788 1.4375 11.4375 C6.8247619 13.1372619 6.8247619 13.1372619 9 15.3125 C9.52637895 19.37313761 9.66230899 21.45149831 7.125 24.75 C2.72008812 26.95245594 -1.16422139 27.12660414 -6 26.3125 C-8.6875 24.5625 -8.6875 24.5625 -10 22.3125 C-9.75 20.0625 -9.75 20.0625 -9 18.3125 C-8.01 18.3125 -7.02 18.3125 -6 18.3125 C-5.67 19.3025 -5.34 20.2925 -5 21.3125 C-0.38492226 22.35464691 -0.38492226 22.35464691 4 21.3125 C4 19.9925 4 18.6725 4 17.3125 C3.22914063 17.04695313 2.45828125 16.78140625 1.6640625 16.5078125 C0.15972656 15.97800781 0.15972656 15.97800781 -1.375 15.4375 C-2.37273437 15.08945313 -3.37046875 14.74140625 -4.3984375 14.3828125 C-7 13.3125 -7 13.3125 -9 11.3125 C-9.56675855 4.1713423 -9.56675855 4.1713423 -7.85546875 1.578125 C-5.20378064 -0.23060542 -3.17939057 -0.05065206 0 0 Z " fill="#BA2121" transform="translate(238,83.6875)"/>
<path d="M0 0 C2.19061796 1.09530898 3.39968353 1.97041137 4.875 3.9375 C5.65625 6.296875 5.65625 6.296875 5.875 8.9375 C4.58203125 11 4.58203125 11 2.6875 12.9375 C2.04296875 13.618125 1.3984375 14.29875 0.734375 15 C0.12078125 15.639375 -0.4928125 16.27875 -1.125 16.9375 C-2.47092097 18.59401812 -3.8109849 20.25556068 -5.125 21.9375 C-8.72405908 21.38199305 -10.12409799 20.18862752 -12.375 17.375 C-12.89578125 16.73433594 -13.4165625 16.09367187 -13.953125 15.43359375 C-14.33984375 14.93988281 -14.7265625 14.44617187 -15.125 13.9375 C-14.34154285 12.76530457 -13.54797164 11.59986332 -12.75 10.4375 C-12.30914062 9.7878125 -11.86828125 9.138125 -11.4140625 8.46875 C-10.98867187 7.9634375 -10.56328125 7.458125 -10.125 6.9375 C-9.465 6.9375 -8.805 6.9375 -8.125 6.9375 C-7.795 5.9475 -7.465 4.9575 -7.125 3.9375 C-2.9878073 -0.08787669 -2.9878073 -0.08787669 0 0 Z " fill="#F0F1F3" transform="translate(152.125,22.0625)"/>
<path d="M0 0 C1.0725 0.103125 2.145 0.20625 3.25 0.3125 C3.25 0.9725 3.25 1.6325 3.25 2.3125 C4.9 2.3125 6.55 2.3125 8.25 2.3125 C8.58 3.6325 8.91 4.9525 9.25 6.3125 C5.24799622 7.91330151 2.20443764 6.60529692 -1.75 5.3125 C-2.08 7.2925 -2.41 9.2725 -2.75 11.3125 C-1.1 11.3125 0.55 11.3125 2.25 11.3125 C2.25 12.6325 2.25 13.9525 2.25 15.3125 C0.27 15.3125 -1.71 15.3125 -3.75 15.3125 C-3.75 22.5725 -3.75 29.8325 -3.75 37.3125 C-5.07 37.3125 -6.39 37.3125 -7.75 37.3125 C-7.75 29.7225 -7.75 22.1325 -7.75 14.3125 C-9.07 14.3125 -10.39 14.3125 -11.75 14.3125 C-11.75 13.3225 -11.75 12.3325 -11.75 11.3125 C-10.43 11.3125 -9.11 11.3125 -7.75 11.3125 C-7.8325 10.425625 -7.915 9.53875 -8 8.625 C-7.57630566 3.01104998 -5.69168017 0.47430668 0 0 Z " fill="#414E6B" transform="translate(52.75,72.6875)"/>
<path d="M0 0 C1.60546875 1.53125 1.60546875 1.53125 3.1875 3.5 C3.71730469 4.1496875 4.24710938 4.799375 4.79296875 5.46875 C5.19128906 5.9740625 5.58960937 6.479375 6 7 C4.27477758 10.79706486 2.27651169 12.40926982 -1 15 C-2.75792242 16.93944702 -4.36897679 18.94957083 -6 21 C-10.24822374 20.52797514 -12.19989709 18.03344482 -15 15 C-13.57792223 10.54094257 -11.3666457 7.96253428 -8.0625 4.6875 C-7.18722656 3.80449219 -6.31195313 2.92148437 -5.41015625 2.01171875 C-3 0 -3 0 0 0 Z " fill="#FAF3F4" transform="translate(114,16)"/>
<path d="M0 0 C1.71875 1.64453125 1.71875 1.64453125 3.5 3.8125 C7.48706313 8.94740781 7.48706313 8.94740781 13 12 C13.33 11.01 13.66 10.02 14 9 C14.495 10.485 14.495 10.485 15 12 C13.35 13.65 11.7 15.3 10 17 C5.70761377 15.34908222 3.1206085 12.26245434 0 9 C-7.92421831 11.02712561 -11.95800389 16.98772285 -17 23 C-18.32 22.34 -19.64 21.68 -21 21 C-20.42663358 17.27155172 -18.91909406 15.53359417 -16.2890625 12.890625 C-15.53882812 12.13652344 -14.78859375 11.38242188 -14.015625 10.60546875 C-13.22671875 9.82816406 -12.4378125 9.05085937 -11.625 8.25 C-10.84382813 7.45722656 -10.06265625 6.66445312 -9.2578125 5.84765625 C-8.505 5.09871094 -7.7521875 4.34976562 -6.9765625 3.578125 C-6.28643066 2.89137695 -5.59629883 2.20462891 -4.88525391 1.49707031 C-3 0 -3 0 0 0 Z " fill="#F0E1E2" transform="translate(114,4)"/>
<path d="M0 0 C2.16352167 2.34381515 2.02172684 4.19554152 2.375 7.375 C1.91753811 11.79713163 1.11097933 13.81124619 -2 17 C-4.99897437 17.73616675 -6.83276415 17.45246226 -10 17 C-11.7265625 15.80859375 -11.7265625 15.80859375 -13 14 C-13.36328125 11.40625 -13.36328125 11.40625 -13.3125 8.5 C-13.30669922 7.06140625 -13.30669922 7.06140625 -13.30078125 5.59375 C-13 3 -13 3 -11 0 C-7.0997958 -1.30006807 -3.95174645 -1.08395637 0 0 Z " fill="#F9EFEF" transform="translate(173,89)"/>
<path d="M0 0 C0.9590625 -0.00773437 1.918125 -0.01546875 2.90625 -0.0234375 C5.5 0.375 5.5 0.375 7.34375 1.7734375 C8.5 3.375 8.5 3.375 8.5 5.375 C9.16 5.375 9.82 5.375 10.5 5.375 C10.5 6.365 10.5 7.355 10.5 8.375 C9.18 8.375 7.86 8.375 6.5 8.375 C5.819375 7.6325 5.819375 7.6325 5.125 6.875 C3.49720612 5.07221202 3.49720612 5.07221202 0.5 5.0625 C-2.67941514 5.15840875 -2.67941514 5.15840875 -5.5 7.375 C-6.77575069 11.48485507 -6.80050197 15.32324309 -5.625 19.4375 C-3.07005849 21.7670055 -2.17899721 21.66629372 1.1875 21.6875 C2.62652893 21.60717143 4.06510191 21.51036774 5.5 21.375 C5.83 20.385 6.16 19.395 6.5 18.375 C7.82 18.375 9.14 18.375 10.5 18.375 C10.1406828 20.8902204 9.43759565 22.47267638 8.0625 24.625 C4.03433912 27.37593914 0.21737447 27.18348084 -4.5 26.375 C-7.45134029 25.32343978 -9.03235547 24.16583586 -10.5 21.375 C-11.4314128 15.32081683 -11.21443835 8.94674188 -8.5 3.375 C-6.01545132 0.0859308 -4.02198844 -0.03243539 0 0 Z " fill="#BC2A2A" transform="translate(191.5,83.625)"/>
<path d="M0 0 C-0.33 1.32 -0.66 2.64 -1 4 C-2.65 4.33 -4.3 4.66 -6 5 C-6.33 6.65 -6.66 8.3 -7 10 C-5.02 10 -3.04 10 -1 10 C-1 10.99 -1 11.98 -1 13 C-2.98 13 -4.96 13 -7 13 C-7 20.59 -7 28.18 -7 36 C-8.65 36 -10.3 36 -12 36 C-12 28.41 -12 20.82 -12 13 C-12.99 13 -13.98 13 -15 13 C-15 12.01 -15 11.02 -15 10 C-13.68 10 -12.36 10 -11 10 C-11.061875 8.906875 -11.12375 7.81375 -11.1875 6.6875 C-11 3 -11 3 -10 1.0625 C-6.73357754 -0.67278693 -3.65648548 -0.17982715 0 0 Z " fill="#C13838" transform="translate(157,74)"/>
<path d="M0 0 C6.41721127 0.62938034 10.1822919 7.41875028 14 12 C15.6454378 13.68762851 17.31288577 15.3540349 19 17 C20.1054757 18.10285608 21.20962854 19.20703964 22.3125 20.3125 C23.199375 21.199375 24.08625 22.08625 25 23 C24.34 24.32 23.68 25.64 23 27 C22.34 27 21.68 27 21 27 C20.608125 25.9275 20.21625 24.855 19.8125 23.75 C18.21451889 20.0263324 16.26219566 18.44664675 13 16 C11.15849456 14.0124721 9.40114782 11.9683213 7.6484375 9.90234375 C5.43672063 7.33962294 5.43672063 7.33962294 3 5 C0.86196946 5.07606836 0.86196946 5.07606836 -1 6 C-1.33 6.66 -1.66 7.32 -2 8 C-2.66 8 -3.32 8 -4 8 C-4.226875 8.556875 -4.45375 9.11375 -4.6875 9.6875 C-6.38572802 12.67961603 -8.50764196 14.61600535 -11 17 C-13.11172959 19.13962036 -15.2203086 21.2823063 -17.328125 23.42578125 C-19 25 -19 25 -20 25 C-20.39173344 21.67903588 -20.31155238 20.3963978 -18.20703125 17.71875 C-17.41683594 16.9865625 -16.62664062 16.254375 -15.8125 15.5 C-14.9875 14.72011719 -14.1625 13.94023437 -13.3125 13.13671875 C-12.549375 12.43160156 -11.78625 11.72648438 -11 11 C-10.113125 10.113125 -9.22625 9.22625 -8.3125 8.3125 C-7.549375 7.549375 -6.78625 6.78625 -6 6 C-5.50757813 5.44957031 -5.01515625 4.89914063 -4.5078125 4.33203125 C-2.9375 2.625 -2.9375 2.625 0 0 Z " fill="#BA3A3B" transform="translate(144,0)"/>
<path d="M0 0 C0.66 0 1.32 0 2 0 C2 1.65 2 3.3 2 5 C6.95 5 11.9 5 17 5 C17 3.68 17 2.36 17 1 C17.66 1 18.32 1 19 1 C19.33 2.98 19.66 4.96 20 7 C14.06 7 8.12 7 2 7 C2 8.65 2 10.3 2 12 C2.66 12 3.32 12 4 12 C4.99 13.485 4.99 13.485 6 15 C7.90457929 15.43827201 7.90457929 15.43827201 10 15.3125 C11.051875 15.30669922 11.051875 15.30669922 12.125 15.30078125 C14.2416577 15.14912946 14.2416577 15.14912946 16 13 C17.32 13 18.64 13 20 13 C19.63935774 15.61465639 19.24128496 16.77199678 17.296875 18.609375 C13.1806354 21.10152006 8.65210097 20.65044573 4 20 C0.83379905 17.81381363 0.2103613 16.63108389 -1 13 C-1.09398043 10.96007192 -1.12992069 8.91708586 -1.125 6.875 C-1.12757812 5.79992187 -1.13015625 4.72484375 -1.1328125 3.6171875 C-1 1 -1 1 0 0 Z " fill="#223254" transform="translate(111,90)"/>
<path d="M0 0 C0.33 0 0.66 0 1 0 C1.33 1.65 1.66 3.3 2 5 C2.66 4.67 3.32 4.34 4 4 C4.04125 5.093125 4.0825 6.18625 4.125 7.3125 C4.59583403 11.16122806 4.59583403 11.16122806 7.625 12.75 C8.73875 13.1625 9.8525 13.575 11 14 C12.29425101 14.55652794 13.58597715 15.11896757 14.875 15.6875 C16.421875 16.3371875 16.421875 16.3371875 18 17 C17.67 18.65 17.34 20.3 17 22 C10.375 23.25 10.375 23.25 7 21 C7 20.01 7 19.02 7 18 C6.01 18.33 5.02 18.66 4 19 C2.28432339 22.50294871 2.28432339 22.50294871 1 26 C0.67 26 0.34 26 0 26 C0 17.42 0 8.84 0 0 Z " fill="#F6E3E3" transform="translate(225,84)"/>
<path d="M0 0 C0.99 0 1.98 0 3 0 C3 1.98 3 3.96 3 6 C4.98 6 6.96 6 9 6 C9 6.99 9 7.98 9 9 C7.35 9.33 5.7 9.66 4 10 C4 15.28 4 20.56 4 26 C6.475 26.99 6.475 26.99 9 28 C9 29.32 9 30.64 9 32 C3.25 32.125 3.25 32.125 1 31 C0.11360611 28.34081834 -0.17989025 26.51935359 -0.31640625 23.76953125 C-0.35830078 22.96708984 -0.40019531 22.16464844 -0.44335938 21.33789062 C-0.48267578 20.50451172 -0.52199219 19.67113281 -0.5625 18.8125 C-0.60568359 17.96751953 -0.64886719 17.12253906 -0.69335938 16.25195312 C-0.79931518 14.16815567 -0.9001502 12.08409897 -1 10 C-1.99 9.67 -2.98 9.34 -4 9 C-4 8.01 -4 7.02 -4 6 C-2.68 6 -1.36 6 0 6 C0 4.02 0 2.04 0 0 Z " fill="#142549" transform="translate(99,78)"/>
<path d="M0 0 C-1.28022875 2.80969467 -2.60714129 4.8539238 -4.79736328 7.02441406 C-5.35779327 7.58469299 -5.91822327 8.14497192 -6.49563599 8.722229 C-7.09777924 9.31404968 -7.69992249 9.90587036 -8.3203125 10.515625 C-8.93897186 11.13145447 -9.55763123 11.74728394 -10.19503784 12.3817749 C-12.16703814 14.34260336 -14.14588737 16.29635301 -16.125 18.25 C-17.46530164 19.58026799 -18.80515083 20.910992 -20.14453125 22.2421875 C-23.42446589 25.5001015 -26.71055942 28.75168533 -30 32 C-30.99 31.67 -31.98 31.34 -33 31 C-31.44396229 27.18063472 -29.04395069 24.73955562 -26 22 C-25.34 22 -24.68 22 -24 22 C-23.690625 21.1646875 -23.690625 21.1646875 -23.375 20.3125 C-21.85334922 17.75336005 -20.02412811 16.31099151 -17.70703125 14.484375 C-15.76515932 12.79579072 -14.16359005 10.9623723 -12.5 9 C-4.79545455 0 -4.79545455 0 0 0 Z " fill="#B93233" transform="translate(147,12)"/>
<path d="M0 0 C1.41493551 -0.10884119 2.83232943 -0.18597617 4.25 -0.25 C5.03890625 -0.29640625 5.8278125 -0.3428125 6.640625 -0.390625 C9 0 9 0 11.28125 1.34375 C14.02029139 5.57681396 13.42031252 9.83058847 13.25 14.75 C13.23195313 15.73355469 13.21390625 16.71710938 13.1953125 17.73046875 C13.14824126 20.15463783 13.08250742 22.57682059 13 25 C11.35 25 9.7 25 8 25 C7.67 18.07 7.34 11.14 7 4 C6.34 3.67 5.68 3.34 5 3 C5 2.34 5 1.68 5 1 C3.35 1 1.7 1 0 1 C0 0.67 0 0.34 0 0 Z " fill="#364463" transform="translate(73,85)"/>
<path d="M0 0 C0.99 0 1.98 0 3 0 C3.66 0.99 4.32 1.98 5 3 C5.33 2.01 5.66 1.02 6 0 C7.4370809 -0.05422947 8.87475462 -0.09289723 10.3125 -0.125 C11.11300781 -0.14820312 11.91351563 -0.17140625 12.73828125 -0.1953125 C15 0 15 0 18 2 C17.125 6.875 17.125 6.875 16 8 C14.19187276 8.15091913 12.37669383 8.22169008 10.5625 8.25 C9.57378906 8.27578125 8.58507812 8.3015625 7.56640625 8.328125 C6.71949219 8.21984375 5.87257813 8.1115625 5 8 C4.34 7.01 3.68 6.02 3 5 C2.67 5.66 2.34 6.32 2 7 C1.34 7 0.68 7 0 7 C0 4.69 0 2.38 0 0 Z " fill="#818B9D" transform="translate(95,122)"/>
<path d="M0 0 C0.99 0 1.98 0 3 0 C3.061875 0.70125 3.12375 1.4025 3.1875 2.125 C4.9628442 8.40698717 10.33807012 12.25287993 15.140625 16.32421875 C17.37950732 18.34203496 19.12959866 20.6446798 21 23 C21.99 23.33 22.98 23.66 24 24 C24 24.99 24 25.98 24 27 C19.80819725 26.49659644 17.90889886 24.21481607 15.0625 21.25 C14.22847656 20.38890625 13.39445312 19.5278125 12.53515625 18.640625 C11.69855469 17.76921875 10.86195312 16.8978125 10 16 C6.61189967 12.54003088 3.15150016 9.42442443 -0.64453125 6.4296875 C-2 5 -2 5 -2 2 C-1.34 2 -0.68 2 0 2 C0 1.34 0 0.68 0 0 Z " fill="#363F64" transform="translate(90,32)"/>
<path d="M0 0 C2.65625 0.29296875 2.65625 0.29296875 4.5 1.8671875 C5.0465625 2.56457031 5.593125 3.26195312 6.15625 3.98046875 C8.20380582 6.51639127 10.19888432 8.89377976 12.59375 11.10546875 C14.65625 13.29296875 14.65625 13.29296875 14.65625 16.29296875 C10.599209 15.76257578 8.70780434 13.71653323 5.90625 10.85546875 C5.10703125 10.05238281 4.3078125 9.24929688 3.484375 8.421875 C1.65625 6.29296875 1.65625 6.29296875 1.65625 4.29296875 C-1.09447177 5.82114751 -3.29690792 7.24612667 -5.53125 9.48046875 C-6.4284375 10.37765625 -6.4284375 10.37765625 -7.34375 11.29296875 C-8.00375 11.29296875 -8.66375 11.29296875 -9.34375 11.29296875 C-4.38456633 0.54807079 -4.38456633 0.54807079 0 0 Z " fill="#B82B2C" transform="translate(112.34375,-0.29296875)"/>
<path d="M0 0 C1.32 0 2.64 0 4 0 C4 8.58 4 17.16 4 26 C2.68 26 1.36 26 0 26 C0 17.42 0 8.84 0 0 Z " fill="#1A2C50" transform="translate(89,84)"/>
<path d="M0 0 C1.32 0 2.64 0 4 0 C4 8.58 4 17.16 4 26 C2.68 26 1.36 26 0 26 C0 17.42 0 8.84 0 0 Z " fill="#283758" transform="translate(57,84)"/>
<path d="M0 0 C1.32 0 2.64 0 4 0 C4 8.58 4 17.16 4 26 C2.68 26 1.36 26 0 26 C0 17.42 0 8.84 0 0 Z " fill="#CED1D9" transform="translate(61,84)"/>
<path d="M0 0 C1.1725131 0.95117134 2.33787015 1.91117009 3.5 2.875 C4.1496875 3.40867187 4.799375 3.94234375 5.46875 4.4921875 C6.22671875 5.23855469 6.22671875 5.23855469 7 6 C7 6.66 7 7.32 7 8 C7.598125 8.226875 8.19625 8.45375 8.8125 8.6875 C11.56351888 10.33811133 12.52484637 12.1972081 14 15 C13.01 15 12.02 15 11 15 C10.195625 14.154375 9.39125 13.30875 8.5625 12.4375 C7.716875 11.633125 6.87125 10.82875 6 10 C2.60534399 10.27431564 0.809021 11.79467867 -1.625 14.0625 C-4.79058824 17 -4.79058824 17 -7 17 C-6.52493804 12.72444237 -3.93067678 10.93067678 -1 8 C0.04289755 5.93109581 0.04289755 5.93109581 0 4 C-0.66 3.34 -1.32 2.68 -2 2 C-1.34 1.34 -0.68 0.68 0 0 Z " fill="#252E56" transform="translate(147,13)"/>
<path d="M0 0 C1.32 0.33 2.64 0.66 4 1 C4.10864945 3.06132142 4.18588321 5.12431321 4.25 7.1875 C4.29640625 8.33605469 4.3428125 9.48460938 4.390625 10.66796875 C3.9249943 14.63979862 2.77629613 16.18771485 0 19 C-2.52475462 20.26237731 -4.31200466 20.09856404 -7.125 20.0625 C-8.03507813 20.05347656 -8.94515625 20.04445313 -9.8828125 20.03515625 C-10.93082031 20.01775391 -10.93082031 20.01775391 -12 20 C-12 19.01 -12 18.02 -12 17 C-10.14375 16.938125 -10.14375 16.938125 -8.25 16.875 C-4.79806388 16.41596594 -4.12757975 16.12439026 -1.5 13.5625 C0.45824068 8.91167839 0.35376752 4.97239904 0 0 Z " fill="#B40B0B" transform="translate(174,90)"/>
<path d="M0 0 C1.97909398 -0.02686553 3.95828971 -0.04633375 5.9375 -0.0625 C7.03964844 -0.07410156 8.14179688 -0.08570312 9.27734375 -0.09765625 C12 0 12 0 13 1 C13.04080783 2.99958364 13.04254356 5.00045254 13 7 C12.01 6.67 11.02 6.34 10 6 C10 6.66 10 7.32 10 8 C6.7 8 3.4 8 0 8 C0 5.36 0 2.72 0 0 Z " fill="#717C91" transform="translate(228,122)"/>
<path d="M0 0 C6.41753653 0.60542797 6.41753653 0.60542797 8.9375 2.3125 C10 4 10 4 10 8 C5.05 8 0.1 8 -5 8 C-4.67 6.35 -4.34 4.7 -4 3 C-2.68 2.67 -1.36 2.34 0 2 C0 1.34 0 0.68 0 0 Z " fill="#E9EBEE" transform="translate(118,87)"/>
<path d="M0 0 C4.29 0 8.58 0 13 0 C14 4 14 4 13 8 C10.03 8 7.06 8 4 8 C4 7.01 4 6.02 4 5 C3.34 5 2.68 5 2 5 C2 5.66 2 6.32 2 7 C1.34 7 0.68 7 0 7 C0 4.69 0 2.38 0 0 Z " fill="#BABFC9" transform="translate(66,122)"/>
<path d="M0 0 C4.17175283 0.5214691 7.9960268 2.01899973 11.9140625 3.4765625 C14.17115592 4.24162503 14.17115592 4.24162503 17 3 C17 2.34 17 1.68 17 1 C17.66 1 18.32 1 19 1 C19 3.31 19 5.62 19 8 C15.49064814 8 12.43515002 7.62457273 9 7 C9 6.01 9 5.02 9 4 C8.34 4 7.68 4 7 4 C7 5.32 7 6.64 7 8 C6.34 8 5.68 8 5 8 C4.67 7.01 4.34 6.02 4 5 C3.01 5 2.02 5 1 5 C1 5.66 1 6.32 1 7 C1.66 7.33 2.32 7.66 3 8 C1.68 7.67 0.36 7.34 -1 7 C-1.04254356 5.00045254 -1.04080783 2.99958364 -1 1 C-0.67 0.67 -0.34 0.34 0 0 Z " fill="#828C9E" transform="translate(77,138)"/>
<path d="M0 0 C4.15654169 3.39762256 7.71323013 6.72719917 11 11 C12.64488294 12.68816933 14.31337542 14.35353315 16 16 C17.1054726 17.10285919 18.20963159 18.2070366 19.3125 19.3125 C20.199375 20.199375 21.08625 21.08625 22 22 C21.34 23.32 20.68 24.64 20 26 C19.34 26 18.68 26 18 26 C17.608125 24.9275 17.21625 23.855 16.8125 22.75 C15.21451889 19.0263324 13.26219566 17.44664675 10 15 C6.10446644 10.86810823 2.49496334 6.47355307 -1 2 C-0.67 1.34 -0.34 0.68 0 0 Z " fill="#343B60" transform="translate(147,1)"/>
<path d="M0 0 C0.66 0 1.32 0 2 0 C2 1.65 2 3.3 2 5 C6.95 5 11.9 5 17 5 C17 3.68 17 2.36 17 1 C17.66 1 18.32 1 19 1 C19.33 2.98 19.66 4.96 20 7 C14.06 7 8.12 7 2 7 C2.33 8.98 2.66 10.96 3 13 C1.68 12.67 0.36 12.34 -1 12 C-1.02687279 10.18757948 -1.04633715 8.37504767 -1.0625 6.5625 C-1.07410156 5.55316406 -1.08570312 4.54382813 -1.09765625 3.50390625 C-1 1 -1 1 0 0 Z " fill="#122347" transform="translate(111,90)"/>
<path d="M0 0 C0 3 0 3 -1.57421875 4.6484375 C-2.27160156 5.21820313 -2.96898437 5.78796875 -3.6875 6.375 C-6.22141162 8.47172265 -8.52808473 10.52220941 -10.6875 13 C-13 15 -13 15 -15.5 15.1875 C-19.12725634 13.46455324 -20.66633763 11.26712731 -23 8 C-23 7.34 -23 6.68 -23 6 C-20.18127263 6.38878998 -19.22804402 6.70810365 -17.4375 9 C-16.963125 9.66 -16.48875 10.32 -16 11 C-15.01 11.33 -14.02 11.66 -13 12 C-12.75121094 11.42765625 -12.50242188 10.8553125 -12.24609375 10.265625 C-10.81574627 7.66499322 -9.15335326 5.85253401 -7.0625 3.75 C-6.37285156 3.04359375 -5.68320313 2.3371875 -4.97265625 1.609375 C-3 0 -3 0 0 0 Z " fill="#3A4267" transform="translate(160,32)"/>
<path d="M0 0 C1.5778125 0.00580078 1.5778125 0.00580078 3.1875 0.01171875 C6 0.3125 6 0.3125 9 2.3125 C8.67 3.9625 8.34 5.6125 8 7.3125 C4.125 6.4375 4.125 6.4375 3 5.3125 C0.32941149 5.17134839 -2.32432238 5.27002893 -5 5.3125 C-5.33 6.6325 -5.66 7.9525 -6 9.3125 C-6.12375 8.508125 -6.2475 7.70375 -6.375 6.875 C-6.684375 5.6065625 -6.684375 5.6065625 -7 4.3125 C-7.66 3.9825 -8.32 3.6525 -9 3.3125 C-6.38323185 -0.1310942 -4.1826108 -0.06663473 0 0 Z " fill="#C64848" transform="translate(238,83.6875)"/>
<path d="M0 0 C0.33 1.98 0.66 3.96 1 6 C-3.62 6 -8.24 6 -13 6 C-13 4 -13 2 -13 0 C-8.38926889 -1.29676812 -4.66159911 -0.71109139 0 0 Z " fill="#D4D7DE" transform="translate(193,140)"/>
<path d="M0 0 C0.66 0 1.32 0 2 0 C2 0.99 2 1.98 2 3 C2.99 3 3.98 3 5 3 C4.84152588 3.57073242 4.68305176 4.14146484 4.51977539 4.72949219 C4.00638657 6.97210188 3.79834104 9.03317915 3.68359375 11.328125 C3.64169922 12.12734375 3.59980469 12.9265625 3.55664062 13.75 C3.51732422 14.575 3.47800781 15.4 3.4375 16.25 C3.39431641 17.09046875 3.35113281 17.9309375 3.30664062 18.796875 C3.20091457 20.86440671 3.09998705 22.93218281 3 25 C2.01 25 1.02 25 0 25 C0 16.75 0 8.5 0 0 Z " fill="#233354" transform="translate(20,85)"/>
<path d="M0 0 C0.96808594 -0.01675781 1.93617188 -0.03351563 2.93359375 -0.05078125 C5.5625 0.3125 5.5625 0.3125 7.41015625 1.70703125 C8.5625 3.3125 8.5625 3.3125 8.5625 5.3125 C9.2225 5.3125 9.8825 5.3125 10.5625 5.3125 C10.5625 6.3025 10.5625 7.2925 10.5625 8.3125 C9.2425 8.3125 7.9225 8.3125 6.5625 8.3125 C6.10875 7.8175 5.655 7.3225 5.1875 6.8125 C3.56723368 5.0175421 3.56723368 5.0175421 0.625 5 C-2.28282863 5.29671721 -3.97734665 5.79855948 -6.4375 7.3125 C-7.0625 4.9375 -7.0625 4.9375 -7.4375 2.3125 C-4.83563892 -0.28936108 -3.61395645 0.01439823 0 0 Z " fill="#C44040" transform="translate(191.4375,83.6875)"/>
<path d="M0 0 C0.99 0 1.98 0 3 0 C3 8.58 3 17.16 3 26 C2.01 26 1.02 26 0 26 C0 17.42 0 8.84 0 0 Z " fill="#06193E" transform="translate(12,84)"/>
<path d="M0 0 C0.99 0 1.98 0 3 0 C3 7.92 3 15.84 3 24 C2.01 24 1.02 24 0 24 C-1.50563857 15.96992764 -0.63782601 8.08567124 0 0 Z " fill="#B60A0A" transform="translate(221,85)"/>
<path d="M0 0 C0.33 0 0.66 0 1 0 C1.33 1.65 1.66 3.3 2 5 C2.66 4.01 3.32 3.02 4 2 C4.07347656 3.15628906 4.07347656 3.15628906 4.1484375 4.3359375 C4.22320312 5.33882813 4.29796875 6.34171875 4.375 7.375 C4.44460937 8.37273437 4.51421875 9.37046875 4.5859375 10.3984375 C4.76363964 13.15508879 4.76363964 13.15508879 7 15 C9.32275177 15.40047444 11.65739357 15.7397104 14 16 C14 16.33 14 16.66 14 17 C11.36 17 8.72 17 6 17 C6 17.66 6 18.32 6 19 C2.43967442 17.81322481 1.5436882 16.34795382 -0.2109375 13.11328125 C-1.57000196 9.4734106 -1.47485334 5.8221802 -1 2 C-0.67 1.34 -0.34 0.68 0 0 Z " fill="#C44343" transform="translate(156,90)"/>
<path d="M0 0 C0.5775 0.165 1.155 0.33 1.75 0.5 C4.26664369 1.14462031 4.26664369 1.14462031 8 1 C9.32 1 10.64 1 12 1 C12 2.98 12 4.96 12 7 C10.68 6.67 9.36 6.34 8 6 C7.67 6.66 7.34 7.32 7 8 C4.69 8 2.38 8 0 8 C0 5.36 0 2.72 0 0 Z " fill="#848EA0" transform="translate(37,122)"/>
<path d="M0 0 C-1.31307372 2.89852365 -2.72684638 4.98277217 -4.96875 7.234375 C-5.82533203 8.09482422 -5.82533203 8.09482422 -6.69921875 8.97265625 C-7.59060547 9.85244141 -7.59060547 9.85244141 -8.5 10.75 C-9.39138672 11.65298828 -9.39138672 11.65298828 -10.30078125 12.57421875 C-10.87183594 13.14269531 -11.44289062 13.71117187 -12.03125 14.296875 C-12.55267578 14.81604492 -13.07410156 15.33521484 -13.61132812 15.87011719 C-15 17 -15 17 -17 17 C-15.8549947 10.32328077 -6.98787288 0 0 0 Z " fill="#B7282A" transform="translate(147,12)"/>
<path d="M0 0 C5.94 0 11.88 0 18 0 C17.34 1.65 16.68 3.3 16 5 C11.71 5 7.42 5 3 5 C3 3.68 3 2.36 3 1 C2.34 1 1.68 1 1 1 C0.67 1.99 0.34 2.98 0 4 C0 2.68 0 1.36 0 0 Z " fill="#9AA2B0" transform="translate(25,141)"/>
<path d="M0 0 C0.66 0 1.32 0 2 0 C2 0.99 2 1.98 2 3 C3.32 3.33 4.64 3.66 6 4 C6 9.61 6 15.22 6 21 C5.34 21 4.68 21 4 21 C4 15.72 4 10.44 4 5 C3.01 5 2.02 5 1 5 C1 11.93 1 18.86 1 26 C0.67 26 0.34 26 0 26 C0 17.42 0 8.84 0 0 Z " fill="#B5BAC5" transform="translate(93,84)"/>
<path d="M0 0 C0.66 1.32 1.32 2.64 2 4 C2.66 4 3.32 4 4 4 C3.67 4.99 3.34 5.98 3 7 C1.68 7 0.36 7 -1 7 C-1 5.35 -1 3.7 -1 2 C-1.66 2 -2.32 2 -3 2 C-3 3.32 -3 4.64 -3 6 C-5.64 6 -8.28 6 -11 6 C-11.33 4.68 -11.66 3.36 -12 2 C-7.8803623 0.70756464 -4.33168317 -0.26252625 0 0 Z " fill="#ADB3BF" transform="translate(68,140)"/>
<path d="M0 0 C0.33 0.99 0.66 1.98 1 3 C2.32 3 3.64 3 5 3 C5 10.59 5 18.18 5 26 C4.67 26 4.34 26 4 26 C4 19.07 4 12.14 4 5 C3.01 5 2.02 5 1 5 C0.67 11.93 0.34 18.86 0 26 C-0.33 26 -0.66 26 -1 26 C-1 18.41 -1 10.82 -1 3 C-1.99 2.67 -2.98 2.34 -4 2 C-2.68 1.34 -1.36 0.68 0 0 Z " fill="#BABFC9" transform="translate(40,84)"/>
<path d="M0 0 C1.75 0.9375 1.75 0.9375 2.75 2.9375 C1.43 2.9375 0.11 2.9375 -1.25 2.9375 C-1.58 3.5975 -1.91 4.2575 -2.25 4.9375 C-2.91 4.9375 -3.57 4.9375 -4.25 4.9375 C-4.25 5.9275 -4.25 6.9175 -4.25 7.9375 C-5.90408814 8.95817145 -7.57387413 9.95343707 -9.25 10.9375 C-11.65304839 13.3235055 -13.96544393 15.74839794 -16.23242188 18.26171875 C-17.62890625 19.734375 -17.62890625 19.734375 -20.25 21.9375 C-22.58984375 21.765625 -22.58984375 21.765625 -24.25 20.9375 C-23.528125 20.545625 -22.80625 20.15375 -22.0625 19.75 C-17.98568403 17.1227186 -15.03034141 13.9407961 -12.0625 10.125 C-11.464375 9.403125 -10.86625 8.68125 -10.25 7.9375 C-9.59 7.9375 -8.93 7.9375 -8.25 7.9375 C-7.92 6.9475 -7.59 5.9575 -7.25 4.9375 C-3.02729796 -0.08409161 -3.02729796 -0.08409161 0 0 Z " fill="#D7D9DF" transform="translate(135.25,38.0625)"/>
<path d="M0 0 C0.33 0 0.66 0 1 0 C1 7.59 1 15.18 1 23 C0.01 23 -0.98 23 -2 23 C-2 16.73 -2 10.46 -2 4 C-1.34 4 -0.68 4 0 4 C0 2.68 0 1.36 0 0 Z " fill="#1B2B4E" transform="translate(38,87)"/>
<path d="M0 0 C1.9375 0.3125 1.9375 0.3125 4 1 C4.33 1.99 4.66 2.98 5 4 C5.66 4 6.32 4 7 4 C7.33 3.01 7.66 2.02 8 1 C8.99 1 9.98 1 11 1 C11 3.31 11 5.62 11 8 C10.34 8 9.68 8 9 8 C8.67 7.34 8.34 6.68 8 6 C6.576875 6.495 6.576875 6.495 5.125 7 C2 8 2 8 0 8 C0 5.36 0 2.72 0 0 Z " fill="#55627A" transform="translate(177,122)"/>
<path d="M0 0 C0 5.28112271 -2.98820104 8.55516916 -6.34765625 12.3828125 C-9.51821168 15.4859093 -12.58757018 17 -17 17 C-11.39 11.39 -5.78 5.78 0 0 Z " fill="#BD3637" transform="translate(106,4)"/>
<path d="M0 0 C1.62418745 -0.08090971 3.24951745 -0.13914995 4.875 -0.1875 C5.77992187 -0.22230469 6.68484375 -0.25710937 7.6171875 -0.29296875 C8.79667969 -0.14794922 8.79667969 -0.14794922 10 0 C10.66 0.99 11.32 1.98 12 3 C12.66 2.34 13.32 1.68 14 1 C14 2.98 14 4.96 14 7 C10.125 5.125 10.125 5.125 9 4 C8.67 4.99 8.34 5.98 8 7 C7.34 7 6.68 7 6 7 C6 5.35 6 3.7 6 2 C4.02 2.99 4.02 2.99 2 4 C2 4.99 2 5.98 2 7 C1.34 7 0.68 7 0 7 C0 4.69 0 2.38 0 0 Z " fill="#737E92" transform="translate(11,122)"/>
<path d="M0 0 C0.66 0 1.32 0 2 0 C2 2.64 2 5.28 2 8 C-0.97 8 -3.94 8 -7 8 C-7 5.69 -7 3.38 -7 1 C-4.69 1.66 -2.38 2.32 0 3 C0 2.01 0 1.02 0 0 Z " fill="#BFC4CD" transform="translate(217,138)"/>
<path d="M0 0 C1 1 1 1 1.125 4 C1 7 1 7 0 8 C-1.99958364 8.04080783 -4.00045254 8.04254356 -6 8 C-6.33 5.69 -6.66 3.38 -7 1 C-4.51588385 -0.24205807 -2.74800896 -0.14092354 0 0 Z " fill="#828C9E" transform="translate(142,122)"/>
<path d="M0 0 C3.3 0 6.6 0 10 0 C9.67 1.32 9.34 2.64 9 4 C8.34 4 7.68 4 7 4 C7 4.66 7 5.32 7 6 C7.99 6 8.98 6 10 6 C10 6.66 10 7.32 10 8 C7.625 8.125 7.625 8.125 5 8 C4.34 7.34 3.68 6.68 3 6 C2.01 6.33 1.02 6.66 0 7 C0 4.69 0 2.38 0 0 Z " fill="#647087" transform="translate(146,122)"/>
<path d="M0 0 C-0.33 1.32 -0.66 2.64 -1 4 C-2.65 4.33 -4.3 4.66 -6 5 C-6.33 6.65 -6.66 8.3 -7 10 C-8.33333333 10 -9.66666667 10 -11 10 C-11.35706695 3.69181722 -11.35706695 3.69181722 -10 1.0625 C-6.73357754 -0.67278693 -3.65648548 -0.17982715 0 0 Z " fill="#C13636" transform="translate(157,74)"/>
<path d="M0 0 C2.33944736 0.28730055 4.6739143 0.61936779 7 1 C7 1.33 7 1.66 7 2 C5.35 2.33 3.7 2.66 2 3 C1.67 10.26 1.34 17.52 1 25 C0.34 25 -0.32 25 -1 25 C-1.02886984 21.02084841 -1.04675406 17.04172347 -1.0625 13.0625 C-1.07087891 11.92619141 -1.07925781 10.78988281 -1.08789062 9.61914062 C-1.09111328 8.53955078 -1.09433594 7.45996094 -1.09765625 6.34765625 C-1.10289307 5.34742432 -1.10812988 4.34719238 -1.11352539 3.31665039 C-1 1 -1 1 0 0 Z " fill="#03163E" transform="translate(47,84)"/>
<path d="M0 0 C3.625 -0.1875 3.625 -0.1875 7 0 C7 0.66 7 1.32 7 2 C8.65 2 10.3 2 12 2 C12.33 3.32 12.66 4.64 13 6 C8.99799622 7.60080151 5.95443764 6.29279692 2 5 C1.67 6.65 1.34 8.3 1 10 C-0.125 6.25 -0.125 6.25 1 4 C2.65 4 4.3 4 6 4 C6 3.34 6 2.68 6 2 C3.36 2.33 0.72 2.66 -2 3 C-1.34 2.01 -0.68 1.02 0 0 Z " fill="#8890A2" transform="translate(49,73)"/>
<path d="M0 0 C2.31 0.33 4.62 0.66 7 1 C7.33 2.32 7.66 3.64 8 5 C8.66 4.01 9.32 3.02 10 2 C10 3.65 10 5.3 10 7 C6.37 7 2.74 7 -1 7 C-1 6.34 -1 5.68 -1 5 C-0.34 4.67 0.32 4.34 1 4 C0.34 3.67 -0.32 3.34 -1 3 C-0.67 2.01 -0.34 1.02 0 0 Z " fill="#A9B0BC" transform="translate(168,139)"/>
<path d="M0 0 C0.66 0 1.32 0 2 0 C3.14702282 5.25081557 2.93088566 10.06516538 2.5625 15.375 C2.51029297 16.20644531 2.45808594 17.03789063 2.40429688 17.89453125 C2.27561269 19.93008108 2.13864593 21.96510441 2 24 C1.34 24 0.68 24 0 24 C0 16.08 0 8.16 0 0 Z " fill="#00143C" transform="translate(66,85)"/>
<path d="M0 0 C0 2.33333333 0 4.66666667 0 7 C1.65 7.33 3.3 7.66 5 8 C4.34 9.32 3.68 10.64 3 12 C1.68 12 0.36 12 -1 12 C-3.13457576 9.15389899 -4.35334574 6.491933 -5 3 C-3.35 2.01 -1.7 1.02 0 0 Z " fill="#B12022" transform="translate(111,35)"/>
<path d="M0 0 C0.99 0.33 1.98 0.66 3 1 C2.154375 1.66 1.30875 2.32 0.4375 3 C-2.87030499 5.73830083 -5.54449768 8.86578172 -8.3203125 12.12890625 C-10.34300226 14.38208857 -12.55404419 16.22112305 -15 18 C-14.41889329 14.57245533 -13.31446376 12.95461339 -10.83984375 10.546875 C-10.21142578 9.928125 -9.58300781 9.309375 -8.93554688 8.671875 C-8.27619141 8.03765625 -7.61683594 7.4034375 -6.9375 6.75 C-6.27427734 6.1003125 -5.61105469 5.450625 -4.92773438 4.78125 C-3.29170683 3.1805324 -1.64909088 1.58723807 0 0 Z " fill="#E6D5D8" transform="translate(109,6)"/>
<path d="M0 0 C0.99 1.485 0.99 1.485 2 3 C2.33 2.34 2.66 1.68 3 1 C5.31 1 7.62 1 10 1 C10.33 2.32 10.66 3.64 11 5 C10.67 4.34 10.34 3.68 10 3 C9.01 3 8.02 3 7 3 C7.66 4.32 8.32 5.64 9 7 C6.03 7 3.06 7 0 7 C0 4.69 0 2.38 0 0 Z " fill="#98A0AF" transform="translate(220,139)"/>
<path d="M0 0 C3.63 0 7.26 0 11 0 C11 1.65 11 3.3 11 5 C8.36 5 5.72 5 3 5 C3 3.68 3 2.36 3 1 C2.34 1 1.68 1 1 1 C0.67 1.99 0.34 2.98 0 4 C0 2.68 0 1.36 0 0 Z " fill="#939BAB" transform="translate(198,141)"/>
<path d="M0 0 C0.33 1.32 0.66 2.64 1 4 C-0.65 4.33 -2.3 4.66 -4 5 C-4 10.28 -4 15.56 -4 21 C-4.66 20.67 -5.32 20.34 -6 20 C-6.02684679 17.35409986 -6.04676357 14.70846904 -6.0625 12.0625 C-6.07087891 11.30775391 -6.07925781 10.55300781 -6.08789062 9.77539062 C-6.09652441 7.85005687 -6.05224333 5.92464419 -6 4 C-5 3 -5 3 -2.4375 2.9375 C-1.2309375 2.9684375 -1.2309375 2.9684375 0 3 C0 2.01 0 1.02 0 0 Z " fill="#BABFC9" transform="translate(108,84)"/>
<path d="M0 0 C0.99 0 1.98 0 3 0 C3.0825 0.7425 3.165 1.485 3.25 2.25 C4.1396946 5.51221354 5.48503749 6.80954878 8 9 C7.67 9.99 7.34 10.98 7 12 C5.67823515 11.09674384 4.36784934 10.17682097 3.0625 9.25 C2.33160156 8.73953125 1.60070312 8.2290625 0.84765625 7.703125 C-1.20805399 5.80822085 -1.62669176 4.72574271 -2 2 C-1.34 2 -0.68 2 0 2 C0 1.34 0 0.68 0 0 Z " fill="#3C4569" transform="translate(90,32)"/>
<path d="M0 0 C0 1.98 0 3.96 0 6 C-0.33 5.01 -0.66 4.02 -1 3 C-1.66 3 -2.32 3 -3 3 C-2.67 4.32 -2.34 5.64 -2 7 C-3.11375 6.814375 -4.2275 6.62875 -5.375 6.4375 C-8.82568861 5.68319343 -8.82568861 5.68319343 -11 7 C-11 5.35 -11 3.7 -11 2 C-9.35440244 1.66550467 -7.70851502 1.33243501 -6.0625 1 C-5.14597656 0.814375 -4.22945312 0.62875 -3.28515625 0.4375 C-1 0 -1 0 0 0 Z " fill="#8C95A6" transform="translate(55,139)"/>
<path d="M0 0 C1.2065625 0.0309375 1.2065625 0.0309375 2.4375 0.0625 C2.7675 0.7225 3.0975 1.3825 3.4375 2.0625 C1.4575 2.0625 -0.5225 2.0625 -2.5625 2.0625 C-1.5725 3.5475 -1.5725 3.5475 -0.5625 5.0625 C-0.5625 4.4025 -0.5625 3.7425 -0.5625 3.0625 C0.7575 3.0625 2.0775 3.0625 3.4375 3.0625 C3.4375 4.7125 3.4375 6.3625 3.4375 8.0625 C0.5625 8.1875 0.5625 8.1875 -2.5625 8.0625 C-3.2225 7.4025 -3.8825 6.7425 -4.5625 6.0625 C-3.83457637 0.09352625 -3.83457637 0.09352625 0 0 Z " fill="#677388" transform="translate(222.5625,121.9375)"/>
<path d="M0 0 C1.1446875 0.2784375 1.1446875 0.2784375 2.3125 0.5625 C5.08967375 1.22819173 5.08967375 1.22819173 8 0 C8 2.31 8 4.62 8 7 C6.68 6.67 5.36 6.34 4 6 C4 5.34 4 4.68 4 4 C3.34 4 2.68 4 2 4 C2 4.99 2 5.98 2 7 C1.34 7 0.68 7 0 7 C0 4.69 0 2.38 0 0 Z " fill="#505D77" transform="translate(199,122)"/>
<path d="M0 0 C0 0.66 0 1.32 0 2 C-1.65 2 -3.3 2 -5 2 C-5 3.32 -5 4.64 -5 6 C-4.34 5.67 -3.68 5.34 -3 5 C-3 4.34 -3 3.68 -3 3 C-2.01 3 -1.02 3 0 3 C0 4.65 0 6.3 0 8 C-2.875 8.125 -2.875 8.125 -6 8 C-6.66 7.34 -7.32 6.68 -8 6 C-7.75 3.4375 -7.75 3.4375 -7 1 C-4.53721199 -0.231394 -2.7204945 -0.07159196 0 0 Z " fill="#69758A" transform="translate(35,122)"/>
<path d="M0 0 C0.68707555 2.49064888 1 4.37886292 1 7 C-1.52475462 8.26237731 -3.31200466 8.09856404 -6.125 8.0625 C-7.03507813 8.05347656 -7.94515625 8.04445313 -8.8828125 8.03515625 C-9.58148438 8.02355469 -10.28015625 8.01195313 -11 8 C-11 7.01 -11 6.02 -11 5 C-9.1128125 4.87625 -9.1128125 4.87625 -7.1875 4.75 C-3.66188788 4.33442857 -3.66188788 4.33442857 -1 1.9375 C-0.67 1.298125 -0.34 0.65875 0 0 Z " fill="#BB2626" transform="translate(173,102)"/>
<path d="M0 0 C1.66611905 -0.042721 3.33382885 -0.04063832 5 0 C6 1 6 1 6.0625 4.0625 C6.041875 5.031875 6.02125 6.00125 6 7 C5.01 6.67 4.02 6.34 3 6 C3 6.66 3 7.32 3 8 C2.01 8 1.02 8 0 8 C0 5.36 0 2.72 0 0 Z " fill="#636F86" transform="translate(235,122)"/>
<path d="M0 0 C0.66 0.33 1.32 0.66 2 1 C2 1.66 2 2.32 2 3 C2.66 3 3.32 3 4 3 C4.33 2.01 4.66 1.02 5 0 C4.67 3.96 4.34 7.92 4 12 C3.34 12 2.68 12 2 12 C1.67 13.65 1.34 15.3 1 17 C0.34 16.67 -0.32 16.34 -1 16 C-0.67 15.67 -0.34 15.34 0 15 C0.07313567 12.46950598 0.09247527 9.96695163 0.0625 7.4375 C0.05798828 6.72658203 0.05347656 6.01566406 0.04882812 5.28320312 C0.03700864 3.52209987 0.01907263 1.76103964 0 0 Z " fill="#DE9B9B" transform="translate(177,89)"/>
<path d="M0 0 C0.99 0.33 1.98 0.66 3 1 C2.34 1 1.68 1 1 1 C0.7525 1.57621094 0.505 2.15242188 0.25 2.74609375 C-1.18694245 5.3370806 -2.85958333 7.02044807 -5 9.0625 C-7.37442798 11.33653856 -9.16347952 13.24521929 -11 16 C-11.33 15.01 -11.66 14.02 -12 13 C-10.7421875 11.1328125 -10.7421875 11.1328125 -8.875 9.125 C-7.91013672 8.07699219 -7.91013672 8.07699219 -6.92578125 7.0078125 C-4.64944582 4.63451349 -2.36089008 2.28934796 0 0 Z " fill="#E9C7C8" transform="translate(111,16)"/>
<path d="M0 0 C3.63 0 7.26 0 11 0 C10.67 1.32 10.34 2.64 10 4 C10 3.01 10 2.02 10 1 C9.34 1 8.68 1 8 1 C8 2.32 8 3.64 8 5 C5.36 5 2.72 5 0 5 C0 3.35 0 1.7 0 0 Z " fill="#9099A9" transform="translate(145,141)"/>
<path d="M0 0 C0.33 0.66 0.66 1.32 1 2 C0.67 2.66 0.34 3.32 0 4 C3.63 4 7.26 4 11 4 C11.33 3.01 11.66 2.02 12 1 C12.33 2.65 12.66 4.3 13 6 C8.05 6 3.1 6 -2 6 C-1 1 -1 1 0 0 Z " fill="#AEB2C0" transform="translate(115,89)"/>
<path d="M0 0 C1.67654729 0.27942455 3.34259285 0.62331656 5 1 C6.3921875 1.2784375 6.3921875 1.2784375 7.8125 1.5625 C8.534375 1.706875 9.25625 1.85125 10 2 C10 2.33 10 2.66 10 3 C7.03 3.66 4.06 4.32 1 5 C1 5.66 1 6.32 1 7 C1.66 7.33 2.32 7.66 3 8 C1.68 7.67 0.36 7.34 -1 7 C-1.04254356 5.00045254 -1.04080783 2.99958364 -1 1 C-0.67 0.67 -0.34 0.34 0 0 Z " fill="#DADDE3" transform="translate(77,138)"/>
<path d="M0 0 C1.15518918 0.90484792 2.29885406 1.8244206 3.4375 2.75 C4.07558594 3.26046875 4.71367188 3.7709375 5.37109375 4.296875 C7.18810554 6.19667629 7.60423197 7.43586908 8 10 C4.74402242 9.75881648 3.2723696 8.47775788 1.1875 6.125 C0.465625 5.09375 -0.25625 4.0625 -1 3 C-0.67 2.01 -0.34 1.02 0 0 Z " fill="#BA2F30" transform="translate(119,6)"/>
<path d="M0 0 C1.66611905 -0.042721 3.33382885 -0.04063832 5 0 C6 1 6 1 6.0625 4.0625 C6.041875 5.031875 6.02125 6.00125 6 7 C5.34 7 4.68 7 4 7 C4 6.34 4 5.68 4 5 C3.34 5 2.68 5 2 5 C2 5.66 2 6.32 2 7 C1.34 7 0.68 7 0 7 C0 4.69 0 2.38 0 0 Z " fill="#58657D" transform="translate(127,122)"/>
<path d="M0 0 C0.99386719 0.02707031 1.98773438 0.05414063 3.01171875 0.08203125 C4.15060547 0.13423828 4.15060547 0.13423828 5.3125 0.1875 C5.3125 0.5175 5.3125 0.8475 5.3125 1.1875 C2.0125 1.1875 -1.2875 1.1875 -4.6875 1.1875 C-4.6875 1.8475 -4.6875 2.5075 -4.6875 3.1875 C-4.0275 3.1875 -3.3675 3.1875 -2.6875 3.1875 C-2.6875 3.8475 -2.6875 4.5075 -2.6875 5.1875 C-3.6775 5.5175 -4.6675 5.8475 -5.6875 6.1875 C-6.3475 6.8475 -7.0075 7.5075 -7.6875 8.1875 C-7.6875 7.5275 -7.6875 6.8675 -7.6875 6.1875 C-8.6775 6.5175 -9.6675 6.8475 -10.6875 7.1875 C-8.16861825 1.5684561 -6.31328865 -0.22282195 0 0 Z " fill="#3F4D6A" transform="translate(120.6875,83.8125)"/>
<path d="M0 0 C1.2065625 0.0309375 1.2065625 0.0309375 2.4375 0.0625 C2.1075 1.3825 1.7775 2.7025 1.4375 4.0625 C0.7775 4.0625 0.1175 4.0625 -0.5625 4.0625 C-0.5625 4.7225 -0.5625 5.3825 -0.5625 6.0625 C0.4275 6.0625 1.4175 6.0625 2.4375 6.0625 C2.4375 6.7225 2.4375 7.3825 2.4375 8.0625 C0.77138095 8.105221 -0.89632885 8.10313832 -2.5625 8.0625 C-3.5625 7.0625 -3.5625 7.0625 -3.6875 4.0625 C-3.52180824 0.08589776 -3.52180824 0.08589776 0 0 Z " fill="#6A768C" transform="translate(54.5625,121.9375)"/>
<path d="M0 0 C1.66611905 -0.042721 3.33382885 -0.04063832 5 0 C6 1 6 1 6.0625 4.0625 C6.041875 5.031875 6.02125 6.00125 6 7 C4.68 6.34 3.36 5.68 2 5 C2 5.66 2 6.32 2 7 C1.34 7 0.68 7 0 7 C0 4.69 0 2.38 0 0 Z " fill="#58657D" transform="translate(66,122)"/>
<path d="M0 0 C0.33 0.99 0.66 1.98 1 3 C1.99 3 2.98 3 4 3 C3.52433594 4.24136719 3.52433594 4.24136719 3.0390625 5.5078125 C1.90524027 9.31847819 1.55838311 12.93226312 1.375 16.875 C1.33632813 17.56335938 1.29765625 18.25171875 1.2578125 18.9609375 C1.16451834 20.64023246 1.08121762 22.32007767 1 24 C0.67 24 0.34 24 0 24 C0 16.08 0 8.16 0 0 Z " fill="#0E2046" transform="translate(21,85)"/>
<path d="M0 0 C2.97 0 5.94 0 9 0 C9.66 1.32 10.32 2.64 11 4 C11.66 4 12.32 4 13 4 C13 4.99 13 5.98 13 7 C9 7 9 7 7.25 5.6875 C6 4 6 4 6 1 C4.02 1 2.04 1 0 1 C0 0.67 0 0.34 0 0 Z " fill="#BA1E1E" transform="translate(189,85)"/>
<path d="M0 0 C1.32 0.66 2.64 1.32 4 2 C3.360625 2.763125 2.72125 3.52625 2.0625 4.3125 C-0.14232781 6.88246713 -0.14232781 6.88246713 -1 10 C-1.99 9.34 -2.98 8.68 -4 8 C-3.34 8 -2.68 8 -2 8 C-2.33 7.34 -2.66 6.68 -3 6 C-3.99 6 -4.98 6 -6 6 C-4.02 4.02 -2.04 2.04 0 0 Z " fill="#4A5273" transform="translate(138,29)"/>
<path d="M0 0 C1.65 0 3.3 0 5 0 C4.814375 0.763125 4.62875 1.52625 4.4375 2.3125 C3.77180827 5.08967375 3.77180827 5.08967375 5 8 C3.35 8 1.7 8 0 8 C0 5.36 0 2.72 0 0 Z " fill="#69758B" transform="translate(59,122)"/>
<path d="M0 0 C1.65 0 3.3 0 5 0 C5 3.11257569 4.82638376 5.10765685 4 8 C2.35 7.67 0.7 7.34 -1 7 C-0.01 6.67 0.98 6.34 2 6 C2 5.34 2 4.68 2 4 C1.01 4 0.02 4 -1 4 C-0.67 2.68 -0.34 1.36 0 0 Z " fill="#6F7A8F" transform="translate(244,122)"/>
<path d="M0 0 C2.0625 0.4375 2.0625 0.4375 4 1 C4.33 2.98 4.66 4.96 5 7 C2.69 7 0.38 7 -2 7 C-1.125 1.125 -1.125 1.125 0 0 Z " fill="#69758B" transform="translate(192,122)"/>
<path d="M0 0 C0.99 0 1.98 0 3 0 C3.33 1.98 3.66 3.96 4 6 C2.02 6 0.04 6 -2 6 C-2 4.68 -2 3.36 -2 2 C-3.32 2.99 -4.64 3.98 -6 5 C-6 3.68 -6 2.36 -6 1 C-4.7934375 1.0309375 -4.7934375 1.0309375 -3.5625 1.0625 C-1.06645115 1.29633621 -1.06645115 1.29633621 0 0 Z " fill="#8F97A8" transform="translate(137,140)"/>
<path d="M0 0 C0.99 0.33 1.98 0.66 3 1 C2.67 2.98 2.34 4.96 2 7 C1.34 7 0.68 7 0 7 C-0.33 9.31 -0.66 11.62 -1 14 C-1.33 14 -1.66 14 -2 14 C-2.1799928 8.78020872 -1.97094808 4.92737019 0 0 Z " fill="#B61818" transform="translate(183,87)"/>
<path d="M0 0 C1.8125 0.25 1.8125 0.25 4 1 C5 2.33333333 6 3.66666667 7 5 C9.09415804 5.79623822 9.09415804 5.79623822 11 6 C10.67 6.99 10.34 7.98 10 9 C7.33289346 8.84759391 5.5494129 8.50635081 3.5546875 6.66796875 C0 2.49375 0 2.49375 0 0 Z " fill="#2C355B" transform="translate(137,38)"/>
<path d="M0 0 C1 2 1 2 0.375 4.375 C-1.25561397 7.4879903 -3.15997255 8.98208576 -6 11 C-6 10.34 -6 9.68 -6 9 C-6.66 8.67 -7.32 8.34 -8 8 C-6.37660195 6.29115995 -4.70680947 4.62553283 -3 3 C-2.34 3 -1.68 3 -1 3 C-0.67 2.01 -0.34 1.02 0 0 Z " fill="#B93C3D" transform="translate(108,14)"/>
<path d="M0 0 C-1.32 1.65 -2.64 3.3 -4 5 C-2.68 6.65 -1.36 8.3 0 10 C-0.33 10.66 -0.66 11.32 -1 12 C-2.17561146 10.90536178 -3.3402489 9.79892814 -4.5 8.6875 C-5.1496875 8.07261719 -5.799375 7.45773438 -6.46875 6.82421875 C-8 5 -8 5 -8 2 C-3.71900826 -1.23966942 -3.71900826 -1.23966942 0 0 Z " fill="#A92E34" transform="translate(96,20)"/>
<path d="M0 0 C1.67542976 0.28604898 3.34385343 0.61781233 5 1 C3.68 1.33 2.36 1.66 1 2 C1 3.32 1 4.64 1 6 C2.32 6 3.64 6 5 6 C5 6.66 5 7.32 5 8 C2.625 8.125 2.625 8.125 0 8 C-0.66 7.34 -1.32 6.68 -2 6 C-1.44444444 1.44444444 -1.44444444 1.44444444 0 0 Z " fill="#6C778C" transform="translate(159,122)"/>
<path d="M0 0 C1.32 0 2.64 0 4 0 C4 1.65 4 3.3 4 5 C4.66 5 5.32 5 6 5 C6.33 3.68 6.66 2.36 7 1 C7.33 1.66 7.66 2.32 8 3 C7.67 3.99 7.34 4.98 7 6 C4.03 6 1.06 6 -2 6 C-1.34 5.67 -0.68 5.34 0 5 C0 3.35 0 1.7 0 0 Z " fill="#B4BAC5" transform="translate(13,124)"/>
<path d="M0 0 C2.0625 0.4375 2.0625 0.4375 4 1 C4.33 2.65 4.66 4.3 5 6 C2.69 6 0.38 6 -2 6 C-1.125 1.125 -1.125 1.125 0 0 Z " fill="#515E77" transform="translate(88,123)"/>
<path d="M0 0 C0.8971875 0.5259375 0.8971875 0.5259375 1.8125 1.0625 C4.10813214 2.33304698 4.10813214 2.33304698 7 1 C7 2.98 7 4.96 7 7 C5.0625 6.625 5.0625 6.625 3 6 C2.67 5.34 2.34 4.68 2 4 C1.34 4.99 0.68 5.98 0 7 C0 4.69 0 2.38 0 0 Z " fill="#3C4B68" transform="translate(42,122)"/>
<path d="M0 0 C0.99 0 1.98 0 3 0 C3.66 0.99 4.32 1.98 5 3 C5.66 2.34 6.32 1.68 7 1 C7 2.98 7 4.96 7 7 C5.68 6.34 4.36 5.68 3 5 C2.67 5.66 2.34 6.32 2 7 C1.34 7 0.68 7 0 7 C0 4.69 0 2.38 0 0 Z " fill="#42516C" transform="translate(95,122)"/>
<path d="M0 0 C1.32 0 2.64 0 4 0 C3.60196439 2.88575819 3.20990931 3.82189513 0.9375 5.75 C0.298125 6.1625 -0.34125 6.575 -1 7 C-1.33 6.34 -1.66 5.68 -2 5 C-3.98 5 -5.96 5 -8 5 C-8 4.67 -8 4.34 -8 4 C-4.535 3.505 -4.535 3.505 -1 3 C-0.67 2.01 -0.34 1.02 0 0 Z " fill="#C34040" transform="translate(198,102)"/>
<path d="M0 0 C1.32 0 2.64 0 4 0 C4.33 1.98 4.66 3.96 5 6 C2.69 6 0.38 6 -2 6 C-1.34 4.02 -0.68 2.04 0 0 Z " fill="#525F78" transform="translate(211,123)"/>
<path d="M0 0 C2.31 0 4.62 0 7 0 C7 0.66 7 1.32 7 2 C6.34 2 5.68 2 5 2 C5 3.65 5 5.3 5 7 C4.01 7.33 3.02 7.66 2 8 C2 6.02 2 4.04 2 2 C1.34 2 0.68 2 0 2 C0 1.34 0 0.68 0 0 Z " fill="#6D788E" transform="translate(165,122)"/>
<path d="M0 0 C0.33 1.32 0.66 2.64 1 4 C-2.3 4 -5.6 4 -9 4 C-9 3.01 -9 2.02 -9 1 C-4.545 0.505 -4.545 0.505 0 0 Z " fill="#B71919" transform="translate(196,106)"/>
<path d="M0 0 C1.32 0 2.64 0 4 0 C3.66113278 2.54150417 3.36171575 3.69393283 1.375 5.375 C-2.12358574 6.29568046 -4.6515074 5.15909359 -8 4 C-8 3.67 -8 3.34 -8 3 C-6.865625 2.690625 -5.73125 2.38125 -4.5625 2.0625 C-1.21224901 1.37075469 -1.21224901 1.37075469 0 0 Z " fill="#3E4C6A" transform="translate(127,103)"/>
<path d="M0 0 C0.474375 0.53625 0.94875 1.0725 1.4375 1.625 C1.1075 2.615 0.7775 3.605 0.4375 4.625 C-0.408125 4.295 -1.25375 3.965 -2.125 3.625 C-5.77239216 2.56394046 -8.78524664 2.47390987 -12.5625 2.625 C-11.5625 0.625 -11.5625 0.625 -9.63671875 -0.11328125 C-3.12899032 -1.67897041 -3.12899032 -1.67897041 0 0 Z " fill="#C54444" transform="translate(175.5625,86.375)"/>
<path d="M0 0 C0.47050781 0.40992187 0.94101563 0.81984375 1.42578125 1.2421875 C2.04839844 1.78101562 2.67101562 2.31984375 3.3125 2.875 C4.23482422 3.67550781 4.23482422 3.67550781 5.17578125 4.4921875 C7.13498212 6.1640447 7.13498212 6.1640447 10 8 C9.67 8.99 9.34 9.98 9 11 C8.67 10.34 8.34 9.68 8 9 C7.1028125 8.8453125 7.1028125 8.8453125 6.1875 8.6875 C2.97236951 7.67703042 1.83130522 5.74695784 0 3 C0 2.01 0 1.02 0 0 Z " fill="#495172" transform="translate(160,26)"/>
<path d="M0 0 C0.99 0.33 1.98 0.66 3 1 C1.04343039 4.5218253 -0.95100975 7.34442785 -4 10 C-4.66 10 -5.32 10 -6 10 C-4.34832443 6.4213696 -2.21713508 3.25179812 0 0 Z " fill="#B72223" transform="translate(109,1)"/>
<path d="M0 0 C0.99 0 1.98 0 3 0 C3.33 0.99 3.66 1.98 4 3 C4.66 3.66 5.32 4.32 6 5 C5.34 5 4.68 5 4 5 C4.33 5.99 4.66 6.98 5 8 C3.125 7.6875 3.125 7.6875 1 7 C-1 4 -1 4 -0.625 1.8125 C-0.41875 1.214375 -0.2125 0.61625 0 0 Z " fill="#C33D3D" transform="translate(229,102)"/>
<path d="M0 0 C2.97 0.495 2.97 0.495 6 1 C5.67 2.32 5.34 3.64 5 5 C4.34 5 3.68 5 3 5 C2.67 4.01 2.34 3.02 2 2 C2 3.98 2 5.96 2 8 C1.34 8 0.68 8 0 8 C0 5.36 0 2.72 0 0 Z " fill="#58657E" transform="translate(119,122)"/>
<path d="M0 0 C0.66 0 1.32 0 2 0 C2.33 1.98 2.66 3.96 3 6 C-1.95 6 -6.9 6 -12 6 C-12 5.67 -12 5.34 -12 5 C-6.555 4.505 -6.555 4.505 -1 4 C-0.67 2.68 -0.34 1.36 0 0 Z " fill="#05173D" transform="translate(128,91)"/>
<path d="M0 0 C0.1953125 2.05078125 0.390625 4.1015625 0.5859375 6.15234375 C0.72257813 6.76207031 0.85921875 7.37179688 1 8 C1.66 8.33 2.32 8.66 3 9 C1.33388095 9.042721 -0.33382885 9.04063832 -2 9 C-3 8 -3 8 -3.0625 4.4375 C-3.041875 3.303125 -3.02125 2.16875 -3 1 C-1 0 -1 0 0 0 Z " fill="#B30909" transform="translate(232,87)"/>
<path d="M0 0 C0 0.66 0 1.32 0 2 C-1.65 2 -3.3 2 -5 2 C-5.28875 2.969375 -5.5775 3.93875 -5.875 4.9375 C-7 8 -7 8 -9 9 C-8.4140625 2.84765625 -8.4140625 2.84765625 -8 1 C-5.29120665 -0.35439668 -2.99066732 -0.06501451 0 0 Z " fill="#0A1D44" transform="translate(55,75)"/>
<path d="M0 0 C2.125 0.375 2.125 0.375 4 1 C2.35 2.98 0.7 4.96 -1 7 C-1.33 6.34 -1.66 5.68 -2 5 C-4.02463255 4.34786708 -4.02463255 4.34786708 -6 4 C-5.38125 3.71125 -4.7625 3.4225 -4.125 3.125 C-1.86674235 2.06279958 -1.86674235 2.06279958 0 0 Z " fill="#515878" transform="translate(116,51)"/>
<path d="M0 0 C1.65 0 3.3 0 5 0 C5 2.31 5 4.62 5 7 C3.33333333 7 1.66666667 7 0 7 C0 4.69 0 2.38 0 0 Z " fill="#838D9F" transform="translate(146,122)"/>
<path d="M0 0 C1.98 0.495 1.98 0.495 4 1 C4 3.62113708 3.68707555 5.50935112 3 8 C1.68 8 0.36 8 -1 8 C-1 7.34 -1 6.68 -1 6 C-0.34 5.67 0.32 5.34 1 5 C0.34 4.67 -0.32 4.34 -1 4 C-0.67 2.68 -0.34 1.36 0 0 Z " fill="#626E85" transform="translate(76,122)"/>
<path d="M0 0 C0.99 0.33 1.98 0.66 3 1 C1.71480435 3.86697492 0.42870746 5.97607712 -2 8 C-2.66 8 -3.32 8 -4 8 C-4 4 -4 4 -2 1.75 C-1.01 0.88375 -1.01 0.88375 0 0 Z " fill="#2D365C" transform="translate(166,34)"/>
<path d="M0 0 C3.3 0 6.6 0 10 0 C5.54507161 3.34119629 5.54507161 3.34119629 1.8125 4.0625 C0.554375 4.371875 -0.70375 4.68125 -2 5 C-2.33 5.66 -2.66 6.32 -3 7 C-3.33 6.01 -3.66 5.02 -4 4 C-3.01 4 -2.02 4 -1 4 C-0.67 2.68 -0.34 1.36 0 0 Z " fill="#394666" transform="translate(72,84)"/>
<path d="M0 0 C0.33 0.99 0.66 1.98 1 3 C-1.3125 5.5 -1.3125 5.5 -4 8 C-4.99 8 -5.98 8 -7 8 C-6.875 6.25 -6.875 6.25 -6 4 C-2.9375 1.75 -2.9375 1.75 0 0 Z " fill="#2F395F" transform="translate(135,34)"/>
<path d="M0 0 C1.65 0.33 3.3 0.66 5 1 C4.67 2.32 4.34 3.64 4 5 C2.35 4.67 0.7 4.34 -1 4 C-0.67 2.68 -0.34 1.36 0 0 Z " fill="#9FA6B4" transform="translate(57,141)"/>
<path d="M0 0 C0.66 0 1.32 0 2 0 C2 2.64 2 5.28 2 8 C1.34 8 0.68 8 0 8 C0 7.34 0 6.68 0 6 C-0.99 6 -1.98 6 -3 6 C-3 4.68 -3 3.36 -3 2 C-2.01 2 -1.02 2 0 2 C0 1.34 0 0.68 0 0 Z " fill="#DDDFE4" transform="translate(57,122)"/>
<path d="M0 0 C1.98 0.495 1.98 0.495 4 1 C3.67 2.65 3.34 4.3 3 6 C1.68 5.67 0.36 5.34 -1 5 C-0.67 3.35 -0.34 1.7 0 0 Z " fill="#3D4B69" transform="translate(12,74)"/>
<path d="M0 0 C-0.38597015 2.79828356 -0.80136573 3.8205884 -2.9375 5.75 C-5 7 -5 7 -7 7 C-6.22006468 2.47637516 -4.81844319 0 0 0 Z " fill="#AC1B1E" transform="translate(147,0)"/>
<path d="M0 0 C1.98 0 3.96 0 6 0 C6 1.65 6 3.3 6 5 C5.67 4.01 5.34 3.02 5 2 C4.34 3.32 3.68 4.64 3 6 C2.01 5.67 1.02 5.34 0 5 C0 3.33333333 0 1.66666667 0 0 Z " fill="#8F98A8" transform="translate(180,140)"/>
<path d="M0 0 C1.32 0 2.64 0 4 0 C4 2.31 4 4.62 4 7 C2.35 7.33 0.7 7.66 -1 8 C-0.34 7.67 0.32 7.34 1 7 C0.67 4.69 0.34 2.38 0 0 Z " fill="#B1B7C3" transform="translate(101,122)"/>
<path d="M0 0 C3.875 0.875 3.875 0.875 5 2 C5.66 1.34 6.32 0.68 7 0 C7 1.98 7 3.96 7 6 C3.125 4.125 3.125 4.125 2 3 C1.34 3.99 0.68 4.98 0 6 C0 4.02 0 2.04 0 0 Z " fill="#2E3F5D" transform="translate(18,123)"/>
<path d="M0 0 C0.66 0.99 1.32 1.98 2 3 C-0.97 5.475 -0.97 5.475 -4 8 C-4.33 6.68 -4.66 5.36 -5 4 C-3.35 2.68 -1.7 1.36 0 0 Z " fill="#474F71" transform="translate(161,40)"/>
<path d="M0 0 C1.75 0.9375 1.75 0.9375 2.75 2.9375 C1.43 2.9375 0.11 2.9375 -1.25 2.9375 C-1.58 3.5975 -1.91 4.2575 -2.25 4.9375 C-2.91 4.9375 -3.57 4.9375 -4.25 4.9375 C-4.58 5.9275 -4.91 6.9175 -5.25 7.9375 C-6.24 7.9375 -7.23 7.9375 -8.25 7.9375 C-6.9398728 4.00711841 -4.55911047 -0.12664196 0 0 Z " fill="#C5C7D1" transform="translate(135.25,38.0625)"/>
<path d="M0 0 C0.33 0.99 0.66 1.98 1 3 C-4.75 8 -4.75 8 -7 8 C-6.875 6.25 -6.875 6.25 -6 4 C-2.9375 1.75 -2.9375 1.75 0 0 Z " fill="#263058" transform="translate(147,22)"/>
<path d="M0 0 C0 3.88182751 -0.99521992 5.91792914 -3.625 8.75 C-4.305625 9.36875 -4.305625 9.36875 -5 10 C-5.99 9.34 -6.98 8.68 -8 8 C-5.36 5.36 -2.72 2.72 0 0 Z " fill="#C14849" transform="translate(106,4)"/>
<path d="M0 0 C2.475 0.495 2.475 0.495 5 1 C5.33 2.65 5.66 4.3 6 6 C5.34 6 4.68 6 4 6 C4 5.01 4 4.02 4 3 C3.34 3 2.68 3 2 3 C2 3.99 2 4.98 2 6 C1.34 6 0.68 6 0 6 C0 4.02 0 2.04 0 0 Z " fill="#8B94A5" transform="translate(210,139)"/>
<path d="M0 0 C0 1.98 0 3.96 0 6 C-0.66 6 -1.32 6 -2 6 C-2 4.68 -2 3.36 -2 2 C-3.32 2 -4.64 2 -6 2 C-5.67 2.99 -5.34 3.98 -5 5 C-5.99 4.67 -6.98 4.34 -8 4 C-8 3.01 -8 2.02 -8 1 C-2.25 0 -2.25 0 0 0 Z " fill="#D9DCE1" transform="translate(228,123)"/>
<path d="M0 0 C1.65 0 3.3 0 5 0 C4.67 1.65 4.34 3.3 4 5 C2.68 5 1.36 5 0 5 C0 3.35 0 1.7 0 0 Z " fill="#344362" transform="translate(89,75)"/>
<path d="M0 0 C2.95409701 1.37154504 5.44008376 2.98863724 8 5 C7.67 5.99 7.34 6.98 7 8 C3.28631113 6.76210371 2.22645819 5.14775123 0 2 C0 1.34 0 0.68 0 0 Z " fill="#252E56" transform="translate(153,9)"/>
<path d="M0 0 C1.65 0.33 3.3 0.66 5 1 C4.67 2.32 4.34 3.64 4 5 C2.35 4.67 0.7 4.34 -1 4 C-0.67 2.68 -0.34 1.36 0 0 Z " fill="#959DAD" transform="translate(125,141)"/>
<path d="M0 0 C-0.33 1.65 -0.66 3.3 -1 5 C-2.98 5 -4.96 5 -7 5 C-6.34 4.67 -5.68 4.34 -5 4 C-5 3.01 -5 2.02 -5 1 C-3 0 -3 0 0 0 Z " fill="#B4BAC5" transform="translate(235,125)"/>
<path d="M0 0 C0.66 0 1.32 0 2 0 C1.43628586 3.26954202 0.50037734 4.82575883 -2 7 C-2.99 6.67 -3.98 6.34 -5 6 C-3.38405168 3.95880212 -1.7143618 1.95927063 0 0 Z " fill="#293359" transform="translate(155,46)"/>
<path d="M0 0 C0.99 0.33 1.98 0.66 3 1 C2 4 2 4 -1.0625 5.6875 C-2.031875 6.120625 -3.00125 6.55375 -4 7 C-3.6875 4.625 -3.6875 4.625 -3 2 C-2.01 1.34 -1.02 0.68 0 0 Z " fill="#B21414" transform="translate(112,12)"/>
<path d="M0 0 C0.99 0 1.98 0 3 0 C3 0.66 3 1.32 3 2 C3.99 2.33 4.98 2.66 6 3 C5.67 3.99 5.34 4.98 5 6 C3.35 6 1.7 6 0 6 C0 5.34 0 4.68 0 4 C0.66 3.67 1.32 3.34 2 3 C1.34 2.67 0.68 2.34 0 2 C0 1.34 0 0.68 0 0 Z " fill="#98A0AF" transform="translate(167,140)"/>
<path d="M0 0 C1.65 0.33 3.3 0.66 5 1 C5 2.32 5 3.64 5 5 C3.35 5 1.7 5 0 5 C0 3.33333333 0 1.66666667 0 0 Z " fill="#929AAB" transform="translate(189,141)"/>
<path d="M0 0 C0.66 0 1.32 0 2 0 C2 0.99 2 1.98 2 3 C2.99 3 3.98 3 5 3 C5 3.66 5 4.32 5 5 C4.34 5.66 3.68 6.32 3 7 C0.875 6.625 0.875 6.625 -1 6 C-0.67 4.02 -0.34 2.04 0 0 Z " fill="#C2C6CF" transform="translate(241,123)"/>
<path d="M0 0 C3.96 0.99 3.96 0.99 8 2 C6.68 2.33 5.36 2.66 4 3 C4.33 3.99 4.66 4.98 5 6 C2.69 5.34 0.38 4.68 -2 4 C-1.34 2.68 -0.68 1.36 0 0 Z " fill="#C24040" transform="translate(233,93)"/>
<path d="M0 0 C2.475 0.495 2.475 0.495 5 1 C4.67 2.32 4.34 3.64 4 5 C2.68 4.67 1.36 4.34 0 4 C0 2.68 0 1.36 0 0 Z " fill="#2F3E5E" transform="translate(57,75)"/>
<path d="M0 0 C0.66 0 1.32 0 2 0 C2 2.31 2 4.62 2 7 C0.0625 6.6875 0.0625 6.6875 -2 6 C-2.33 5.01 -2.66 4.02 -3 3 C-2.01 2.67 -1.02 2.34 0 2 C0 1.34 0 0.68 0 0 Z " fill="#9BA2B1" transform="translate(94,139)"/>
<path d="M0 0 C2.4375 0.6875 2.4375 0.6875 5 2 C5.8125 4.625 5.8125 4.625 6 7 C5.67 6.34 5.34 5.68 5 5 C2.97536745 4.34786708 2.97536745 4.34786708 1 4 C0.67 2.68 0.34 1.36 0 0 Z " fill="#1E2E51" transform="translate(125,86)"/>
<path d="M0 0 C2.64 0 5.28 0 8 0 C8.66 1.65 9.32 3.3 10 5 C8.68 4.67 7.36 4.34 6 4 C6 3.01 6 2.02 6 1 C4.02 1 2.04 1 0 1 C0 0.67 0 0.34 0 0 Z " fill="#B81616" transform="translate(235,85)"/>
<path d="M0 0 C0.66 0.33 1.32 0.66 2 1 C1.01 2.32 0.02 3.64 -1 5 C-0.34 5.33 0.32 5.66 1 6 C0.01 6.66 -0.98 7.32 -2 8 C-3.32 7.67 -4.64 7.34 -6 7 C-4.02 4.69 -2.04 2.38 0 0 Z " fill="#BF4647" transform="translate(114,29)"/>
<path d="M0 0 C0.33 0.66 0.66 1.32 1 2 C-1 5 -1 5 -4.125 5.6875 C-5.07375 5.790625 -6.0225 5.89375 -7 6 C-3.375 1.125 -3.375 1.125 0 0 Z " fill="#B72426" transform="translate(134,12)"/>
<path d="M0 0 C2 2 2 2 2.125 4.625 C2.08375 5.40875 2.0425 6.1925 2 7 C1.01 7.495 1.01 7.495 0 8 C0 7.34 0 6.68 0 6 C-0.99 6 -1.98 6 -3 6 C-3 4.68 -3 3.36 -3 2 C-2.01 2 -1.02 2 0 2 C0 1.34 0 0.68 0 0 Z " fill="#DBDEE3" transform="translate(156,122)"/>
<path d="M0 0 C0.66 1.32 1.32 2.64 2 4 C0.02 4.99 0.02 4.99 -2 6 C-2 5.34 -2 4.68 -2 4 C-3.98 4 -5.96 4 -8 4 C-8 3.67 -8 3.34 -8 3 C-6.865625 2.690625 -5.73125 2.38125 -4.5625 2.0625 C-1.21224901 1.37075469 -1.21224901 1.37075469 0 0 Z " fill="#C44040" transform="translate(219,103)"/>
<path d="M0 0 C1.32 0.33 2.64 0.66 4 1 C3.42655063 3.86724686 3.1385485 4.8614515 1 7 C0.01 6.67 -0.98 6.34 -2 6 C-1.34 6 -0.68 6 0 6 C0 4.02 0 2.04 0 0 Z " fill="#B81515" transform="translate(174,100)"/>
<path d="M0 0 C0.66 0.33 1.32 0.66 2 1 C2 1.99 2 2.98 2 4 C1.01 4.66 0.02 5.32 -1 6 C-2.32 5.34 -3.64 4.68 -5 4 C-4.01 4 -3.02 4 -2 4 C-1.34 2.68 -0.68 1.36 0 0 Z " fill="#515978" transform="translate(149,51)"/>
<path d="M0 0 C0.66 0.33 1.32 0.66 2 1 C2 2.98 2 4.96 2 7 C1.01 7.495 1.01 7.495 0 8 C0 7.34 0 6.68 0 6 C-0.66 5.67 -1.32 5.34 -2 5 C-2 4.01 -2 3.02 -2 2 C-1.34 2 -0.68 2 0 2 C0 1.34 0 0.68 0 0 Z " fill="#DCDFE4" transform="translate(64,122)"/>
<path d="M0 0 C1.98 1.65 3.96 3.3 6 5 C5.01 5.99 4.02 6.98 3 8 C3 7.01 3 6.02 3 5 C2.01 4.67 1.02 4.34 0 4 C0 2.68 0 1.36 0 0 Z " fill="#C2C5CF" transform="translate(157,27)"/>
<path d="M0 0 C5.78461538 3.32307692 5.78461538 3.32307692 6.875 6.75 C6.936875 7.86375 6.936875 7.86375 7 9 C4.03595495 6.19195732 1.55500981 3.81684226 0 0 Z " fill="#B31416" transform="translate(90,23)"/>
<path d="M0 0 C0.99 0.33 1.98 0.66 3 1 C-0.465 3.97 -0.465 3.97 -4 7 C-4.66 6.67 -5.32 6.34 -6 6 C-4.02 4.02 -2.04 2.04 0 0 Z " fill="#DFC5C8" transform="translate(109,6)"/>
<path d="M0 0 C2.31 0.33 4.62 0.66 7 1 C5.68 1.33 4.36 1.66 3 2 C2.67 3.65 2.34 5.3 2 7 C1.67 7 1.34 7 1 7 C0.67 4.69 0.34 2.38 0 0 Z " fill="#D1D5DB" transform="translate(220,138)"/>
<path d="M0 0 C3.16115776 1.36983503 3.9927092 1.9890638 6 5 C5.01 5.33 4.02 5.66 3 6 C1.5 4.6875 1.5 4.6875 0 3 C0 2.01 0 1.02 0 0 Z " fill="#474F71" transform="translate(131,43)"/>
<path d="M0 0 C0.33 0.99 0.66 1.98 1 3 C3.01508358 3.73323796 3.01508358 3.73323796 5 4 C0.56923077 6.09230769 0.56923077 6.09230769 -2.3125 5.625 C-2.869375 5.41875 -3.42625 5.2125 -4 5 C-2.68 3.35 -1.36 1.7 0 0 Z " fill="#606784" transform="translate(148,18)"/>
<path d="M0 0 C0.66 0 1.32 0 2 0 C2 0.99 2 1.98 2 3 C2.66 3.33 3.32 3.66 4 4 C3.34 4 2.68 4 2 4 C2 4.66 2 5.32 2 6 C2.66 6.33 3.32 6.66 4 7 C2.68 6.67 1.36 6.34 0 6 C0 4.02 0 2.04 0 0 Z " fill="#8891A2" transform="translate(76,139)"/>
<path d="M0 0 C1.32 0.33 2.64 0.66 4 1 C4.33 2.98 4.66 4.96 5 7 C4.34 6.67 3.68 6.34 3 6 C3 5.01 3 4.02 3 3 C2.01 3 1.02 3 0 3 C0 2.01 0 1.02 0 0 Z " fill="#485670" transform="translate(192,122)"/>
<path d="M0 0 C0 0.99 0 1.98 0 3 C-2.64 3 -5.28 3 -8 3 C-5.53387212 -0.1151089 -3.89156016 -0.31553191 0 0 Z " fill="#BA2121" transform="translate(217,107)"/>
<path d="M0 0 C1.65 0 3.3 0 5 0 C5.66 1.32 6.32 2.64 7 4 C5.68 3.67 4.36 3.34 3 3 C2.67 3.66 2.34 4.32 2 5 C1.34 3.35 0.68 1.7 0 0 Z " fill="#364563" transform="translate(110,102)"/>
<path d="M0 0 C1.32 0 2.64 0 4 0 C4 1.65 4 3.3 4 5 C3.01 5.495 3.01 5.495 2 6 C2 5.01 2 4.02 2 3 C1.34 3 0.68 3 0 3 C0 2.01 0 1.02 0 0 Z " fill="#B50D0D" transform="translate(242,98)"/>
<path d="M0 0 C2.475 0.99 2.475 0.99 5 2 C4.67 3.65 4.34 5.3 4 7 C3.01 6.67 2.02 6.34 1 6 C1.66 6 2.32 6 3 6 C2.01 4.02 1.02 2.04 0 0 Z " fill="#D67E7E" transform="translate(242,84)"/>
<path d="M0 0 C0.33 0.99 0.66 1.98 1 3 C3.01508358 3.73323796 3.01508358 3.73323796 5 4 C3.02 4.33 1.04 4.66 -1 5 C-1 4.34 -1 3.68 -1 3 C-1.99 2.67 -2.98 2.34 -4 2 C-2.68 1.34 -1.36 0.68 0 0 Z " fill="#BDC1CB" transform="translate(40,84)"/>
<path d="M0 0 C1.98 0.66 3.96 1.32 6 2 C6 2.99 6 3.98 6 5 C4.125 4.75 4.125 4.75 2 4 C0.75 1.9375 0.75 1.9375 0 0 Z " fill="#16214B" transform="translate(108,54)"/>
<path d="M0 0 C1.65 1.65 3.3 3.3 5 5 C0.25 4.25 0.25 4.25 -2 2 C-1.34 1.34 -0.68 0.68 0 0 Z " fill="#4C3E5E" transform="translate(147,13)"/>
</svg>
